M48
; DRILL file {KiCad 6.0.11+dfsg-1~bpo11+1} date Monday, 06 March, 2023 05:28:26 PM
; FORMAT={-:-/ absolute / inch / decimal}
; #@! TF.CreationDate,2023-03-06T17:28:26+08:00
; #@! TF.GenerationSoftware,Kicad,Pcbnew,6.0.11+dfsg-1~bpo11+1
; #@! TF.FileFunction,Plated,1,2,PTH
FMAT,2
INCH
; #@! TA.AperFunction,Plated,PTH,ComponentDrill
T1C0.0394
%
G90
G05
T1
X4.2063Y-2.2756
X4.2063Y-2.3756
X4.2063Y-2.4756
X4.2072Y-2.6415
X4.2072Y-2.7415
X4.2072Y-2.8415
X4.2072Y-3.0039
X4.2072Y-3.1039
X4.2072Y-3.2039
X4.2072Y-3.3665
X4.2072Y-3.4665
X4.2072Y-3.5665
X4.2072Y-3.7283
X4.2072Y-3.8283
X4.2072Y-3.9283
X4.2072Y-4.0901
X4.2072Y-4.1901
X4.2072Y-4.2901
X4.2072Y-4.4528
X4.2072Y-4.5528
X4.2072Y-4.6528
X4.2072Y-4.815
X4.2072Y-4.915
X4.2072Y-5.015
X4.2072Y-5.1772
X4.2072Y-5.2772
X4.2072Y-5.3772
X4.2072Y-5.5394
X4.2072Y-5.6394
X4.2072Y-5.7394
X4.5064Y-2.2747
X4.5064Y-2.3747
X4.5064Y-2.4747
X4.5072Y-2.6406
X4.5072Y-2.7406
X4.5072Y-2.8406
X4.5072Y-3.0031
X4.5072Y-3.1031
X4.5072Y-3.2031
X4.5072Y-3.3657
X4.5072Y-3.4657
X4.5072Y-3.5657
X4.5072Y-3.7274
X4.5072Y-3.8274
X4.5072Y-3.9274
X4.5072Y-4.0892
X4.5072Y-4.1892
X4.5072Y-4.2892
X4.5072Y-4.4519
X4.5072Y-4.5519
X4.5072Y-4.6519
X4.5072Y-4.8141
X4.5072Y-4.9141
X4.5072Y-5.0141
X4.5072Y-5.1763
X4.5072Y-5.2763
X4.5072Y-5.3763
X4.5072Y-5.5385
X4.5072Y-5.6385
X4.5072Y-5.7385
X4.6954Y-2.2764
X4.6954Y-2.3764
X4.6954Y-2.4764
X4.6962Y-2.6423
X4.6962Y-2.7423
X4.6962Y-2.8423
X4.6962Y-3.0047
X4.6962Y-3.1047
X4.6962Y-3.2047
X4.6962Y-3.3673
X4.6962Y-3.4673
X4.6962Y-3.5673
X4.6962Y-3.7291
X4.6962Y-3.8291
X4.6962Y-3.9291
X4.6962Y-4.0909
X4.6962Y-4.1909
X4.6962Y-4.2909
X4.6962Y-4.4535
X4.6962Y-4.5535
X4.6962Y-4.6535
X4.6962Y-4.8157
X4.6962Y-4.9157
X4.6962Y-5.0157
X4.6962Y-5.178
X4.6962Y-5.278
X4.6962Y-5.378
X4.6962Y-5.5402
X4.6962Y-5.6402
X4.6962Y-5.7402
X4.9954Y-2.2755
X4.9954Y-2.3755
X4.9954Y-2.4755
X4.9963Y-2.6414
X4.9963Y-2.7414
X4.9963Y-2.8414
X4.9963Y-3.0039
X4.9963Y-3.1039
X4.9963Y-3.2039
X4.9963Y-3.3665
X4.9963Y-3.4665
X4.9963Y-3.5665
X4.9963Y-3.7282
X4.9963Y-3.8282
X4.9963Y-3.9282
X4.9963Y-4.09
X4.9963Y-4.19
X4.9963Y-4.29
X4.9963Y-4.4527
X4.9963Y-4.5527
X4.9963Y-4.6527
X4.9963Y-4.8149
X4.9963Y-4.9149
X4.9963Y-5.0149
X4.9963Y-5.1771
X4.9963Y-5.2771
X4.9963Y-5.3771
X4.9963Y-5.5393
X4.9963Y-5.6393
X4.9963Y-5.7393
X5.1835Y-2.2756
X5.1835Y-2.3756
X5.1835Y-2.4756
X5.1844Y-2.6415
X5.1844Y-2.7415
X5.1844Y-2.8415
X5.1844Y-3.0039
X5.1844Y-3.1039
X5.1844Y-3.2039
X5.1844Y-3.3665
X5.1844Y-3.4665
X5.1844Y-3.5665
X5.1844Y-3.7283
X5.1844Y-3.8283
X5.1844Y-3.9283
X5.1844Y-4.0901
X5.1844Y-4.1901
X5.1844Y-4.2901
X5.1844Y-4.4528
X5.1844Y-4.5528
X5.1844Y-4.6528
X5.1844Y-4.815
X5.1844Y-4.915
X5.1844Y-5.015
X5.1844Y-5.1772
X5.1844Y-5.2772
X5.1844Y-5.3772
X5.1844Y-5.5394
X5.1844Y-5.6394
X5.1844Y-5.7394
X5.4836Y-2.2747
X5.4836Y-2.3747
X5.4836Y-2.4747
X5.4845Y-2.6406
X5.4845Y-2.7406
X5.4845Y-2.8406
X5.4845Y-3.0031
X5.4845Y-3.1031
X5.4845Y-3.2031
X5.4845Y-3.3657
X5.4845Y-3.4657
X5.4845Y-3.5657
X5.4845Y-3.7274
X5.4845Y-3.8274
X5.4845Y-3.9274
X5.4845Y-4.0892
X5.4845Y-4.1892
X5.4845Y-4.2892
X5.4845Y-4.4519
X5.4845Y-4.5519
X5.4845Y-4.6519
X5.4845Y-4.8141
X5.4845Y-4.9141
X5.4845Y-5.0141
X5.4845Y-5.1763
X5.4845Y-5.2763
X5.4845Y-5.3763
X5.4845Y-5.5385
X5.4845Y-5.6385
X5.4845Y-5.7385
X5.6717Y-2.2756
X5.6717Y-2.3756
X5.6717Y-2.4756
X5.6726Y-2.6415
X5.6726Y-2.7415
X5.6726Y-2.8415
X5.6726Y-3.0039
X5.6726Y-3.1039
X5.6726Y-3.2039
X5.6726Y-3.3665
X5.6726Y-3.4665
X5.6726Y-3.5665
X5.6726Y-3.7283
X5.6726Y-3.8283
X5.6726Y-3.9283
X5.6726Y-4.0901
X5.6726Y-4.1901
X5.6726Y-4.2901
X5.6726Y-4.4528
X5.6726Y-4.5528
X5.6726Y-4.6528
X5.6726Y-4.815
X5.6726Y-4.915
X5.6726Y-5.015
X5.6726Y-5.1772
X5.6726Y-5.2772
X5.6726Y-5.3772
X5.6726Y-5.5394
X5.6726Y-5.6394
X5.6726Y-5.7394
X5.9718Y-2.2747
X5.9718Y-2.3747
X5.9718Y-2.4747
X5.9727Y-2.6406
X5.9727Y-2.7406
X5.9727Y-2.8406
X5.9727Y-3.0031
X5.9727Y-3.1031
X5.9727Y-3.2031
X5.9727Y-3.3657
X5.9727Y-3.4657
X5.9727Y-3.5657
X5.9727Y-3.7274
X5.9727Y-3.8274
X5.9727Y-3.9274
X5.9727Y-4.0892
X5.9727Y-4.1892
X5.9727Y-4.2892
X5.9727Y-4.4519
X5.9727Y-4.5519
X5.9727Y-4.6519
X5.9727Y-4.8141
X5.9727Y-4.9141
X5.9727Y-5.0141
X5.9727Y-5.1763
X5.9727Y-5.2763
X5.9727Y-5.3763
X5.9727Y-5.5385
X5.9727Y-5.6385
X5.9727Y-5.7385
X6.1599Y-2.2755
X6.1599Y-2.3755
X6.1599Y-2.4755
X6.1608Y-2.6414
X6.1608Y-2.7414
X6.1608Y-2.8414
X6.1608Y-3.0039
X6.1608Y-3.1039
X6.1608Y-3.2039
X6.1608Y-3.3665
X6.1608Y-3.4665
X6.1608Y-3.5665
X6.1608Y-3.7282
X6.1608Y-3.8282
X6.1608Y-3.9282
X6.1608Y-4.09
X6.1608Y-4.19
X6.1608Y-4.29
X6.1608Y-4.4527
X6.1608Y-4.5527
X6.1608Y-4.6527
X6.1608Y-4.8149
X6.1608Y-4.9149
X6.1608Y-5.0149
X6.1608Y-5.1771
X6.1608Y-5.2771
X6.1608Y-5.3771
X6.1608Y-5.5393
X6.1608Y-5.6393
X6.1608Y-5.7393
X6.46Y-2.2746
X6.46Y-2.3746
X6.46Y-2.4746
X6.4609Y-2.6406
X6.4609Y-2.7406
X6.4609Y-2.8406
X6.4609Y-3.003
X6.4609Y-3.103
X6.4609Y-3.203
X6.4609Y-3.3656
X6.4609Y-3.4656
X6.4609Y-3.5656
X6.4609Y-3.7273
X6.4609Y-3.8273
X6.4609Y-3.9273
X6.4609Y-4.0891
X6.4609Y-4.1891
X6.4609Y-4.2891
X6.4609Y-4.4518
X6.4609Y-4.5518
X6.4609Y-4.6518
X6.4609Y-4.814
X6.4609Y-4.914
X6.4609Y-5.014
X6.4609Y-5.1762
X6.4609Y-5.2762
X6.4609Y-5.3762
X6.4609Y-5.5384
X6.4609Y-5.6384
X6.4609Y-5.7384
X6.6481Y-2.2755
X6.6481Y-2.3755
X6.6481Y-2.4755
X6.649Y-2.6414
X6.649Y-2.7414
X6.649Y-2.8414
X6.649Y-3.0039
X6.649Y-3.1039
X6.649Y-3.2039
X6.649Y-3.3665
X6.649Y-3.4665
X6.649Y-3.5665
X6.649Y-3.7282
X6.649Y-3.8282
X6.649Y-3.9282
X6.649Y-4.09
X6.649Y-4.19
X6.649Y-4.29
X6.649Y-4.4527
X6.649Y-4.5527
X6.649Y-4.6527
X6.649Y-4.8149
X6.649Y-4.9149
X6.649Y-5.0149
X6.649Y-5.1771
X6.649Y-5.2771
X6.649Y-5.3771
X6.649Y-5.5393
X6.649Y-5.6393
X6.649Y-5.7393
X6.9482Y-2.2746
X6.9482Y-2.3746
X6.9482Y-2.4746
X6.9491Y-2.6406
X6.9491Y-2.7406
X6.9491Y-2.8406
X6.9491Y-3.003
X6.9491Y-3.103
X6.9491Y-3.203
X6.9491Y-3.3656
X6.9491Y-3.4656
X6.9491Y-3.5656
X6.9491Y-3.7273
X6.9491Y-3.8273
X6.9491Y-3.9273
X6.9491Y-4.0891
X6.9491Y-4.1891
X6.9491Y-4.2891
X6.9491Y-4.4518
X6.9491Y-4.5518
X6.9491Y-4.6518
X6.9491Y-4.814
X6.9491Y-4.914
X6.9491Y-5.014
X6.9491Y-5.1762
X6.9491Y-5.2762
X6.9491Y-5.3762
X6.9491Y-5.5384
X6.9491Y-5.6384
X6.9491Y-5.7384
X7.1363Y-2.2764
X7.1363Y-2.3764
X7.1363Y-2.4764
X7.1372Y-2.6423
X7.1372Y-2.7423
X7.1372Y-2.8423
X7.1372Y-3.0047
X7.1372Y-3.1047
X7.1372Y-3.2047
X7.1372Y-3.3673
X7.1372Y-3.4673
X7.1372Y-3.5673
X7.1372Y-3.7291
X7.1372Y-3.8291
X7.1372Y-3.9291
X7.1372Y-4.0909
X7.1372Y-4.1909
X7.1372Y-4.2909
X7.1372Y-4.4535
X7.1372Y-4.5535
X7.1372Y-4.6535
X7.1372Y-4.8157
X7.1372Y-4.9157
X7.1372Y-5.0157
X7.1372Y-5.178
X7.1372Y-5.278
X7.1372Y-5.378
X7.1372Y-5.5402
X7.1372Y-5.6402
X7.1372Y-5.7402
X7.4364Y-2.2755
X7.4364Y-2.3755
X7.4364Y-2.4755
X7.4372Y-2.6414
X7.4372Y-2.7414
X7.4372Y-2.8414
X7.4372Y-3.0039
X7.4372Y-3.1039
X7.4372Y-3.2039
X7.4372Y-3.3665
X7.4372Y-3.4665
X7.4372Y-3.5665
X7.4372Y-3.7282
X7.4372Y-3.8282
X7.4372Y-3.9282
X7.4372Y-4.09
X7.4372Y-4.19
X7.4372Y-4.29
X7.4372Y-4.4527
X7.4372Y-4.5527
X7.4372Y-4.6527
X7.4372Y-4.8149
X7.4372Y-4.9149
X7.4372Y-5.0149
X7.4372Y-5.1771
X7.4372Y-5.2771
X7.4372Y-5.3771
X7.4372Y-5.5393
X7.4372Y-5.6393
X7.4372Y-5.7393
X7.6237Y-2.278
X7.6237Y-2.378
X7.6237Y-2.478
X7.6246Y-2.6439
X7.6246Y-2.7439
X7.6246Y-2.8439
X7.6246Y-3.0063
X7.6246Y-3.1063
X7.6246Y-3.2063
X7.6246Y-3.3689
X7.6246Y-3.4689
X7.6246Y-3.5689
X7.6246Y-3.7307
X7.6246Y-3.8307
X7.6246Y-3.9307
X7.6246Y-4.0925
X7.6246Y-4.1925
X7.6246Y-4.2925
X7.6246Y-4.4552
X7.6246Y-4.5552
X7.6246Y-4.6552
X7.6246Y-4.8174
X7.6246Y-4.9174
X7.6246Y-5.0174
X7.6246Y-5.1796
X7.6246Y-5.2796
X7.6246Y-5.3796
X7.6246Y-5.5418
X7.6246Y-5.6418
X7.6246Y-5.7418
X7.9238Y-2.2771
X7.9238Y-2.3771
X7.9238Y-2.4771
X7.9247Y-2.643
X7.9247Y-2.743
X7.9247Y-2.843
X7.9247Y-3.0055
X7.9247Y-3.1055
X7.9247Y-3.2055
X7.9247Y-3.3681
X7.9247Y-3.4681
X7.9247Y-3.5681
X7.9247Y-3.7298
X7.9247Y-3.8298
X7.9247Y-3.9298
X7.9247Y-4.0916
X7.9247Y-4.1916
X7.9247Y-4.2916
X7.9247Y-4.4543
X7.9247Y-4.5543
X7.9247Y-4.6543
X7.9247Y-4.8165
X7.9247Y-4.9165
X7.9247Y-5.0165
X7.9247Y-5.1787
X7.9247Y-5.2787
X7.9247Y-5.3787
X7.9247Y-5.5409
X7.9247Y-5.6409
X7.9247Y-5.7409
T0
M30
