%TF.GenerationSoftware,KiCad,Pcbnew,6.0.11+dfsg-1~bpo11+1*%
%TF.CreationDate,2023-03-06T17:28:23+08:00*%
%TF.ProjectId,sot2dip - panel,736f7432-6469-4702-902d-2070616e656c,rev?*%
%TF.SameCoordinates,Original*%
%TF.FileFunction,Copper,L2,Bot*%
%TF.FilePolarity,Positive*%
%FSLAX46Y46*%
G04 Gerber Fmt 4.6, Leading zero omitted, Abs format (unit mm)*
G04 Created by KiCad (PCBNEW 6.0.11+dfsg-1~bpo11+1) date 2023-03-06 17:28:23*
%MOMM*%
%LPD*%
G01*
G04 APERTURE LIST*
%TA.AperFunction,ComponentPad*%
%ADD10C,1.700000*%
%TD*%
%TA.AperFunction,ComponentPad*%
%ADD11O,1.700000X1.700000*%
%TD*%
%TA.AperFunction,ComponentPad*%
%ADD12R,1.700000X1.700000*%
%TD*%
G04 APERTURE END LIST*
D10*
%TO.P,J3,1,Pin_1*%
%TO.N,Net-(J2-Pad4)*%
X126884000Y-62878000D03*
D11*
%TO.P,J3,2,Pin_2*%
%TO.N,Net-(J2-Pad5)*%
X126884000Y-60338000D03*
%TO.P,J3,3,Pin_3*%
%TO.N,Net-(J2-Pad6)*%
X126884000Y-57798000D03*
%TD*%
D12*
%TO.P,J1,1,Pin_1*%
%TO.N,Net-(J1-Pad1)*%
X181284000Y-103908000D03*
D11*
%TO.P,J1,2,Pin_2*%
%TO.N,Net-(J1-Pad2)*%
X181284000Y-106448000D03*
%TO.P,J1,3,Pin_3*%
%TO.N,Net-(J1-Pad3)*%
X181284000Y-108988000D03*
%TD*%
D10*
%TO.P,J3,1,Pin_1*%
%TO.N,Net-(J2-Pad4)*%
X164106000Y-136556000D03*
D11*
%TO.P,J3,2,Pin_2*%
%TO.N,Net-(J2-Pad5)*%
X164106000Y-134016000D03*
%TO.P,J3,3,Pin_3*%
%TO.N,Net-(J2-Pad6)*%
X164106000Y-131476000D03*
%TD*%
D10*
%TO.P,J3,1,Pin_1*%
%TO.N,Net-(J2-Pad4)*%
X164106000Y-145756000D03*
D11*
%TO.P,J3,2,Pin_2*%
%TO.N,Net-(J2-Pad5)*%
X164106000Y-143216000D03*
%TO.P,J3,3,Pin_3*%
%TO.N,Net-(J2-Pad6)*%
X164106000Y-140676000D03*
%TD*%
D12*
%TO.P,J1,1,Pin_1*%
%TO.N,Net-(J1-Pad1)*%
X193665000Y-76361000D03*
D11*
%TO.P,J1,2,Pin_2*%
%TO.N,Net-(J1-Pad2)*%
X193665000Y-78901000D03*
%TO.P,J1,3,Pin_3*%
%TO.N,Net-(J1-Pad3)*%
X193665000Y-81441000D03*
%TD*%
D12*
%TO.P,J1,1,Pin_1*%
%TO.N,Net-(J1-Pad1)*%
X131684000Y-76300000D03*
D11*
%TO.P,J1,2,Pin_2*%
%TO.N,Net-(J1-Pad2)*%
X131684000Y-78840000D03*
%TO.P,J1,3,Pin_3*%
%TO.N,Net-(J1-Pad3)*%
X131684000Y-81380000D03*
%TD*%
D10*
%TO.P,J3,1,Pin_1*%
%TO.N,Net-(J2-Pad4)*%
X114484000Y-108946000D03*
D11*
%TO.P,J3,2,Pin_2*%
%TO.N,Net-(J2-Pad5)*%
X114484000Y-106406000D03*
%TO.P,J3,3,Pin_3*%
%TO.N,Net-(J2-Pad6)*%
X114484000Y-103866000D03*
%TD*%
D10*
%TO.P,J3,1,Pin_1*%
%TO.N,Net-(J2-Pad4)*%
X201287000Y-109007000D03*
D11*
%TO.P,J3,2,Pin_2*%
%TO.N,Net-(J2-Pad5)*%
X201287000Y-106467000D03*
%TO.P,J3,3,Pin_3*%
%TO.N,Net-(J2-Pad6)*%
X201287000Y-103927000D03*
%TD*%
D10*
%TO.P,J3,1,Pin_1*%
%TO.N,Net-(J2-Pad4)*%
X164106000Y-72150000D03*
D11*
%TO.P,J3,2,Pin_2*%
%TO.N,Net-(J2-Pad5)*%
X164106000Y-69610000D03*
%TO.P,J3,3,Pin_3*%
%TO.N,Net-(J2-Pad6)*%
X164106000Y-67070000D03*
%TD*%
D12*
%TO.P,J1,1,Pin_1*%
%TO.N,Net-(J1-Pad1)*%
X181284000Y-67114000D03*
D11*
%TO.P,J1,2,Pin_2*%
%TO.N,Net-(J1-Pad2)*%
X181284000Y-69654000D03*
%TO.P,J1,3,Pin_3*%
%TO.N,Net-(J1-Pad3)*%
X181284000Y-72194000D03*
%TD*%
D12*
%TO.P,J1,1,Pin_1*%
%TO.N,Net-(J1-Pad1)*%
X156484000Y-122298000D03*
D11*
%TO.P,J1,2,Pin_2*%
%TO.N,Net-(J1-Pad2)*%
X156484000Y-124838000D03*
%TO.P,J1,3,Pin_3*%
%TO.N,Net-(J1-Pad3)*%
X156484000Y-127378000D03*
%TD*%
D10*
%TO.P,J3,1,Pin_1*%
%TO.N,Net-(J2-Pad4)*%
X151706000Y-136558000D03*
D11*
%TO.P,J3,2,Pin_2*%
%TO.N,Net-(J2-Pad5)*%
X151706000Y-134018000D03*
%TO.P,J3,3,Pin_3*%
%TO.N,Net-(J2-Pad6)*%
X151706000Y-131478000D03*
%TD*%
D10*
%TO.P,J3,1,Pin_1*%
%TO.N,Net-(J2-Pad4)*%
X188906000Y-118178000D03*
D11*
%TO.P,J3,2,Pin_2*%
%TO.N,Net-(J2-Pad5)*%
X188906000Y-115638000D03*
%TO.P,J3,3,Pin_3*%
%TO.N,Net-(J2-Pad6)*%
X188906000Y-113098000D03*
%TD*%
D12*
%TO.P,J1,1,Pin_1*%
%TO.N,Net-(J1-Pad1)*%
X156484000Y-85508000D03*
D11*
%TO.P,J1,2,Pin_2*%
%TO.N,Net-(J1-Pad2)*%
X156484000Y-88048000D03*
%TO.P,J1,3,Pin_3*%
%TO.N,Net-(J1-Pad3)*%
X156484000Y-90588000D03*
%TD*%
D12*
%TO.P,J1,1,Pin_1*%
%TO.N,Net-(J1-Pad1)*%
X168884000Y-85508000D03*
D11*
%TO.P,J1,2,Pin_2*%
%TO.N,Net-(J1-Pad2)*%
X168884000Y-88048000D03*
%TO.P,J1,3,Pin_3*%
%TO.N,Net-(J1-Pad3)*%
X168884000Y-90588000D03*
%TD*%
D10*
%TO.P,J3,1,Pin_1*%
%TO.N,Net-(J2-Pad4)*%
X201287000Y-81419000D03*
D11*
%TO.P,J3,2,Pin_2*%
%TO.N,Net-(J2-Pad5)*%
X201287000Y-78879000D03*
%TO.P,J3,3,Pin_3*%
%TO.N,Net-(J2-Pad6)*%
X201287000Y-76339000D03*
%TD*%
D12*
%TO.P,J1,1,Pin_1*%
%TO.N,Net-(J1-Pad1)*%
X181284000Y-76320000D03*
D11*
%TO.P,J1,2,Pin_2*%
%TO.N,Net-(J1-Pad2)*%
X181284000Y-78860000D03*
%TO.P,J1,3,Pin_3*%
%TO.N,Net-(J1-Pad3)*%
X181284000Y-81400000D03*
%TD*%
D10*
%TO.P,J3,1,Pin_1*%
%TO.N,Net-(J2-Pad4)*%
X164106000Y-127356000D03*
D11*
%TO.P,J3,2,Pin_2*%
%TO.N,Net-(J2-Pad5)*%
X164106000Y-124816000D03*
%TO.P,J3,3,Pin_3*%
%TO.N,Net-(J2-Pad6)*%
X164106000Y-122276000D03*
%TD*%
D10*
%TO.P,J3,1,Pin_1*%
%TO.N,Net-(J2-Pad4)*%
X164084000Y-62856000D03*
D11*
%TO.P,J3,2,Pin_2*%
%TO.N,Net-(J2-Pad5)*%
X164084000Y-60316000D03*
%TO.P,J3,3,Pin_3*%
%TO.N,Net-(J2-Pad6)*%
X164084000Y-57776000D03*
%TD*%
D12*
%TO.P,J1,1,Pin_1*%
%TO.N,Net-(J1-Pad1)*%
X106862000Y-76300000D03*
D11*
%TO.P,J1,2,Pin_2*%
%TO.N,Net-(J1-Pad2)*%
X106862000Y-78840000D03*
%TO.P,J1,3,Pin_3*%
%TO.N,Net-(J1-Pad3)*%
X106862000Y-81380000D03*
%TD*%
D10*
%TO.P,J3,1,Pin_1*%
%TO.N,Net-(J2-Pad4)*%
X176506000Y-108944000D03*
D11*
%TO.P,J3,2,Pin_2*%
%TO.N,Net-(J2-Pad5)*%
X176506000Y-106404000D03*
%TO.P,J3,3,Pin_3*%
%TO.N,Net-(J2-Pad6)*%
X176506000Y-103864000D03*
%TD*%
D12*
%TO.P,J1,1,Pin_1*%
%TO.N,Net-(J1-Pad1)*%
X181262000Y-57820000D03*
D11*
%TO.P,J1,2,Pin_2*%
%TO.N,Net-(J1-Pad2)*%
X181262000Y-60360000D03*
%TO.P,J1,3,Pin_3*%
%TO.N,Net-(J1-Pad3)*%
X181262000Y-62900000D03*
%TD*%
D10*
%TO.P,J3,1,Pin_1*%
%TO.N,Net-(J2-Pad4)*%
X126906000Y-99776000D03*
D11*
%TO.P,J3,2,Pin_2*%
%TO.N,Net-(J2-Pad5)*%
X126906000Y-97236000D03*
%TO.P,J3,3,Pin_3*%
%TO.N,Net-(J2-Pad6)*%
X126906000Y-94696000D03*
%TD*%
D12*
%TO.P,J1,1,Pin_1*%
%TO.N,Net-(J1-Pad1)*%
X156484000Y-67092000D03*
D11*
%TO.P,J1,2,Pin_2*%
%TO.N,Net-(J1-Pad2)*%
X156484000Y-69632000D03*
%TO.P,J1,3,Pin_3*%
%TO.N,Net-(J1-Pad3)*%
X156484000Y-72172000D03*
%TD*%
D12*
%TO.P,J1,1,Pin_1*%
%TO.N,Net-(J1-Pad1)*%
X131684000Y-113100000D03*
D11*
%TO.P,J1,2,Pin_2*%
%TO.N,Net-(J1-Pad2)*%
X131684000Y-115640000D03*
%TO.P,J1,3,Pin_3*%
%TO.N,Net-(J1-Pad3)*%
X131684000Y-118180000D03*
%TD*%
D10*
%TO.P,J3,1,Pin_1*%
%TO.N,Net-(J2-Pad4)*%
X176506000Y-127356000D03*
D11*
%TO.P,J3,2,Pin_2*%
%TO.N,Net-(J2-Pad5)*%
X176506000Y-124816000D03*
%TO.P,J3,3,Pin_3*%
%TO.N,Net-(J2-Pad6)*%
X176506000Y-122276000D03*
%TD*%
D12*
%TO.P,J1,1,Pin_1*%
%TO.N,Net-(J1-Pad1)*%
X156484000Y-140698000D03*
D11*
%TO.P,J1,2,Pin_2*%
%TO.N,Net-(J1-Pad2)*%
X156484000Y-143238000D03*
%TO.P,J1,3,Pin_3*%
%TO.N,Net-(J1-Pad3)*%
X156484000Y-145778000D03*
%TD*%
D10*
%TO.P,J3,1,Pin_1*%
%TO.N,Net-(J2-Pad4)*%
X139306000Y-136558000D03*
D11*
%TO.P,J3,2,Pin_2*%
%TO.N,Net-(J2-Pad5)*%
X139306000Y-134018000D03*
%TO.P,J3,3,Pin_3*%
%TO.N,Net-(J2-Pad6)*%
X139306000Y-131478000D03*
%TD*%
D12*
%TO.P,J1,1,Pin_1*%
%TO.N,Net-(J1-Pad1)*%
X106862000Y-113100000D03*
D11*
%TO.P,J1,2,Pin_2*%
%TO.N,Net-(J1-Pad2)*%
X106862000Y-115640000D03*
%TO.P,J1,3,Pin_3*%
%TO.N,Net-(J1-Pad3)*%
X106862000Y-118180000D03*
%TD*%
D10*
%TO.P,J3,1,Pin_1*%
%TO.N,Net-(J2-Pad4)*%
X139306000Y-81358000D03*
D11*
%TO.P,J3,2,Pin_2*%
%TO.N,Net-(J2-Pad5)*%
X139306000Y-78818000D03*
%TO.P,J3,3,Pin_3*%
%TO.N,Net-(J2-Pad6)*%
X139306000Y-76278000D03*
%TD*%
D10*
%TO.P,J3,1,Pin_1*%
%TO.N,Net-(J2-Pad4)*%
X126906000Y-136578000D03*
D11*
%TO.P,J3,2,Pin_2*%
%TO.N,Net-(J2-Pad5)*%
X126906000Y-134038000D03*
%TO.P,J3,3,Pin_3*%
%TO.N,Net-(J2-Pad6)*%
X126906000Y-131498000D03*
%TD*%
D10*
%TO.P,J3,1,Pin_1*%
%TO.N,Net-(J2-Pad4)*%
X176506000Y-90566000D03*
D11*
%TO.P,J3,2,Pin_2*%
%TO.N,Net-(J2-Pad5)*%
X176506000Y-88026000D03*
%TO.P,J3,3,Pin_3*%
%TO.N,Net-(J2-Pad6)*%
X176506000Y-85486000D03*
%TD*%
D12*
%TO.P,J1,1,Pin_1*%
%TO.N,Net-(J1-Pad1)*%
X131684000Y-131500000D03*
D11*
%TO.P,J1,2,Pin_2*%
%TO.N,Net-(J1-Pad2)*%
X131684000Y-134040000D03*
%TO.P,J1,3,Pin_3*%
%TO.N,Net-(J1-Pad3)*%
X131684000Y-136580000D03*
%TD*%
D10*
%TO.P,J3,1,Pin_1*%
%TO.N,Net-(J2-Pad4)*%
X139306000Y-127358000D03*
D11*
%TO.P,J3,2,Pin_2*%
%TO.N,Net-(J2-Pad5)*%
X139306000Y-124818000D03*
%TO.P,J3,3,Pin_3*%
%TO.N,Net-(J2-Pad6)*%
X139306000Y-122278000D03*
%TD*%
D12*
%TO.P,J1,1,Pin_1*%
%TO.N,Net-(J1-Pad1)*%
X168884000Y-113098000D03*
D11*
%TO.P,J1,2,Pin_2*%
%TO.N,Net-(J1-Pad2)*%
X168884000Y-115638000D03*
%TO.P,J1,3,Pin_3*%
%TO.N,Net-(J1-Pad3)*%
X168884000Y-118178000D03*
%TD*%
D10*
%TO.P,J3,1,Pin_1*%
%TO.N,Net-(J2-Pad4)*%
X151706000Y-108946000D03*
D11*
%TO.P,J3,2,Pin_2*%
%TO.N,Net-(J2-Pad5)*%
X151706000Y-106406000D03*
%TO.P,J3,3,Pin_3*%
%TO.N,Net-(J2-Pad6)*%
X151706000Y-103866000D03*
%TD*%
D10*
%TO.P,J3,1,Pin_1*%
%TO.N,Net-(J2-Pad4)*%
X188906000Y-108966000D03*
D11*
%TO.P,J3,2,Pin_2*%
%TO.N,Net-(J2-Pad5)*%
X188906000Y-106426000D03*
%TO.P,J3,3,Pin_3*%
%TO.N,Net-(J2-Pad6)*%
X188906000Y-103886000D03*
%TD*%
D10*
%TO.P,J3,1,Pin_1*%
%TO.N,Net-(J2-Pad4)*%
X139284000Y-62858000D03*
D11*
%TO.P,J3,2,Pin_2*%
%TO.N,Net-(J2-Pad5)*%
X139284000Y-60318000D03*
%TO.P,J3,3,Pin_3*%
%TO.N,Net-(J2-Pad6)*%
X139284000Y-57778000D03*
%TD*%
D12*
%TO.P,J1,1,Pin_1*%
%TO.N,Net-(J1-Pad1)*%
X119284000Y-85530000D03*
D11*
%TO.P,J1,2,Pin_2*%
%TO.N,Net-(J1-Pad2)*%
X119284000Y-88070000D03*
%TO.P,J1,3,Pin_3*%
%TO.N,Net-(J1-Pad3)*%
X119284000Y-90610000D03*
%TD*%
D12*
%TO.P,J1,1,Pin_1*%
%TO.N,Net-(J1-Pad1)*%
X119284000Y-67114000D03*
D11*
%TO.P,J1,2,Pin_2*%
%TO.N,Net-(J1-Pad2)*%
X119284000Y-69654000D03*
%TO.P,J1,3,Pin_3*%
%TO.N,Net-(J1-Pad3)*%
X119284000Y-72194000D03*
%TD*%
D12*
%TO.P,J1,1,Pin_1*%
%TO.N,Net-(J1-Pad1)*%
X144084000Y-140700000D03*
D11*
%TO.P,J1,2,Pin_2*%
%TO.N,Net-(J1-Pad2)*%
X144084000Y-143240000D03*
%TO.P,J1,3,Pin_3*%
%TO.N,Net-(J1-Pad3)*%
X144084000Y-145780000D03*
%TD*%
D12*
%TO.P,J1,1,Pin_1*%
%TO.N,Net-(J1-Pad1)*%
X156484000Y-113098000D03*
D11*
%TO.P,J1,2,Pin_2*%
%TO.N,Net-(J1-Pad2)*%
X156484000Y-115638000D03*
%TO.P,J1,3,Pin_3*%
%TO.N,Net-(J1-Pad3)*%
X156484000Y-118178000D03*
%TD*%
D10*
%TO.P,J3,1,Pin_1*%
%TO.N,Net-(J2-Pad4)*%
X151706000Y-81358000D03*
D11*
%TO.P,J3,2,Pin_2*%
%TO.N,Net-(J2-Pad5)*%
X151706000Y-78818000D03*
%TO.P,J3,3,Pin_3*%
%TO.N,Net-(J2-Pad6)*%
X151706000Y-76278000D03*
%TD*%
D10*
%TO.P,J3,1,Pin_1*%
%TO.N,Net-(J2-Pad4)*%
X164106000Y-81356000D03*
D11*
%TO.P,J3,2,Pin_2*%
%TO.N,Net-(J2-Pad5)*%
X164106000Y-78816000D03*
%TO.P,J3,3,Pin_3*%
%TO.N,Net-(J2-Pad6)*%
X164106000Y-76276000D03*
%TD*%
D12*
%TO.P,J1,1,Pin_1*%
%TO.N,Net-(J1-Pad1)*%
X131684000Y-67094000D03*
D11*
%TO.P,J1,2,Pin_2*%
%TO.N,Net-(J1-Pad2)*%
X131684000Y-69634000D03*
%TO.P,J1,3,Pin_3*%
%TO.N,Net-(J1-Pad3)*%
X131684000Y-72174000D03*
%TD*%
D12*
%TO.P,J1,1,Pin_1*%
%TO.N,Net-(J1-Pad1)*%
X156484000Y-76298000D03*
D11*
%TO.P,J1,2,Pin_2*%
%TO.N,Net-(J1-Pad2)*%
X156484000Y-78838000D03*
%TO.P,J1,3,Pin_3*%
%TO.N,Net-(J1-Pad3)*%
X156484000Y-81378000D03*
%TD*%
D10*
%TO.P,J3,1,Pin_1*%
%TO.N,Net-(J2-Pad4)*%
X176506000Y-136556000D03*
D11*
%TO.P,J3,2,Pin_2*%
%TO.N,Net-(J2-Pad5)*%
X176506000Y-134016000D03*
%TO.P,J3,3,Pin_3*%
%TO.N,Net-(J2-Pad6)*%
X176506000Y-131476000D03*
%TD*%
D10*
%TO.P,J3,1,Pin_1*%
%TO.N,Net-(J2-Pad4)*%
X188906000Y-136578000D03*
D11*
%TO.P,J3,2,Pin_2*%
%TO.N,Net-(J2-Pad5)*%
X188906000Y-134038000D03*
%TO.P,J3,3,Pin_3*%
%TO.N,Net-(J2-Pad6)*%
X188906000Y-131498000D03*
%TD*%
D12*
%TO.P,J1,1,Pin_1*%
%TO.N,Net-(J1-Pad1)*%
X131684000Y-122300000D03*
D11*
%TO.P,J1,2,Pin_2*%
%TO.N,Net-(J1-Pad2)*%
X131684000Y-124840000D03*
%TO.P,J1,3,Pin_3*%
%TO.N,Net-(J1-Pad3)*%
X131684000Y-127380000D03*
%TD*%
D12*
%TO.P,J1,1,Pin_1*%
%TO.N,Net-(J1-Pad1)*%
X106862000Y-140700000D03*
D11*
%TO.P,J1,2,Pin_2*%
%TO.N,Net-(J1-Pad2)*%
X106862000Y-143240000D03*
%TO.P,J1,3,Pin_3*%
%TO.N,Net-(J1-Pad3)*%
X106862000Y-145780000D03*
%TD*%
D10*
%TO.P,J3,1,Pin_1*%
%TO.N,Net-(J2-Pad4)*%
X188906000Y-145778000D03*
D11*
%TO.P,J3,2,Pin_2*%
%TO.N,Net-(J2-Pad5)*%
X188906000Y-143238000D03*
%TO.P,J3,3,Pin_3*%
%TO.N,Net-(J2-Pad6)*%
X188906000Y-140698000D03*
%TD*%
D12*
%TO.P,J1,1,Pin_1*%
%TO.N,Net-(J1-Pad1)*%
X181284000Y-140720000D03*
D11*
%TO.P,J1,2,Pin_2*%
%TO.N,Net-(J1-Pad2)*%
X181284000Y-143260000D03*
%TO.P,J1,3,Pin_3*%
%TO.N,Net-(J1-Pad3)*%
X181284000Y-145800000D03*
%TD*%
D12*
%TO.P,J1,1,Pin_1*%
%TO.N,Net-(J1-Pad1)*%
X144084000Y-67094000D03*
D11*
%TO.P,J1,2,Pin_2*%
%TO.N,Net-(J1-Pad2)*%
X144084000Y-69634000D03*
%TO.P,J1,3,Pin_3*%
%TO.N,Net-(J1-Pad3)*%
X144084000Y-72174000D03*
%TD*%
D10*
%TO.P,J3,1,Pin_1*%
%TO.N,Net-(J2-Pad4)*%
X201287000Y-136619000D03*
D11*
%TO.P,J3,2,Pin_2*%
%TO.N,Net-(J2-Pad5)*%
X201287000Y-134079000D03*
%TO.P,J3,3,Pin_3*%
%TO.N,Net-(J2-Pad6)*%
X201287000Y-131539000D03*
%TD*%
D12*
%TO.P,J1,1,Pin_1*%
%TO.N,Net-(J1-Pad1)*%
X193665000Y-85571000D03*
D11*
%TO.P,J1,2,Pin_2*%
%TO.N,Net-(J1-Pad2)*%
X193665000Y-88111000D03*
%TO.P,J1,3,Pin_3*%
%TO.N,Net-(J1-Pad3)*%
X193665000Y-90651000D03*
%TD*%
D12*
%TO.P,J1,1,Pin_1*%
%TO.N,Net-(J1-Pad1)*%
X119284000Y-131520000D03*
D11*
%TO.P,J1,2,Pin_2*%
%TO.N,Net-(J1-Pad2)*%
X119284000Y-134060000D03*
%TO.P,J1,3,Pin_3*%
%TO.N,Net-(J1-Pad3)*%
X119284000Y-136600000D03*
%TD*%
D12*
%TO.P,J1,1,Pin_1*%
%TO.N,Net-(J1-Pad1)*%
X119284000Y-103908000D03*
D11*
%TO.P,J1,2,Pin_2*%
%TO.N,Net-(J1-Pad2)*%
X119284000Y-106448000D03*
%TO.P,J1,3,Pin_3*%
%TO.N,Net-(J1-Pad3)*%
X119284000Y-108988000D03*
%TD*%
D12*
%TO.P,J1,1,Pin_1*%
%TO.N,Net-(J1-Pad1)*%
X156484000Y-94696000D03*
D11*
%TO.P,J1,2,Pin_2*%
%TO.N,Net-(J1-Pad2)*%
X156484000Y-97236000D03*
%TO.P,J1,3,Pin_3*%
%TO.N,Net-(J1-Pad3)*%
X156484000Y-99776000D03*
%TD*%
D10*
%TO.P,J3,1,Pin_1*%
%TO.N,Net-(J2-Pad4)*%
X126906000Y-127378000D03*
D11*
%TO.P,J3,2,Pin_2*%
%TO.N,Net-(J2-Pad5)*%
X126906000Y-124838000D03*
%TO.P,J3,3,Pin_3*%
%TO.N,Net-(J2-Pad6)*%
X126906000Y-122298000D03*
%TD*%
D10*
%TO.P,J3,1,Pin_1*%
%TO.N,Net-(J2-Pad4)*%
X188906000Y-127378000D03*
D11*
%TO.P,J3,2,Pin_2*%
%TO.N,Net-(J2-Pad5)*%
X188906000Y-124838000D03*
%TO.P,J3,3,Pin_3*%
%TO.N,Net-(J2-Pad6)*%
X188906000Y-122298000D03*
%TD*%
D10*
%TO.P,J3,1,Pin_1*%
%TO.N,Net-(J2-Pad4)*%
X126906000Y-81378000D03*
D11*
%TO.P,J3,2,Pin_2*%
%TO.N,Net-(J2-Pad5)*%
X126906000Y-78838000D03*
%TO.P,J3,3,Pin_3*%
%TO.N,Net-(J2-Pad6)*%
X126906000Y-76298000D03*
%TD*%
D12*
%TO.P,J1,1,Pin_1*%
%TO.N,Net-(J1-Pad1)*%
X168884000Y-131498000D03*
D11*
%TO.P,J1,2,Pin_2*%
%TO.N,Net-(J1-Pad2)*%
X168884000Y-134038000D03*
%TO.P,J1,3,Pin_3*%
%TO.N,Net-(J1-Pad3)*%
X168884000Y-136578000D03*
%TD*%
D12*
%TO.P,J1,1,Pin_1*%
%TO.N,Net-(J1-Pad1)*%
X144084000Y-131500000D03*
D11*
%TO.P,J1,2,Pin_2*%
%TO.N,Net-(J1-Pad2)*%
X144084000Y-134040000D03*
%TO.P,J1,3,Pin_3*%
%TO.N,Net-(J1-Pad3)*%
X144084000Y-136580000D03*
%TD*%
D10*
%TO.P,J3,1,Pin_1*%
%TO.N,Net-(J2-Pad4)*%
X201287000Y-99817000D03*
D11*
%TO.P,J3,2,Pin_2*%
%TO.N,Net-(J2-Pad5)*%
X201287000Y-97277000D03*
%TO.P,J3,3,Pin_3*%
%TO.N,Net-(J2-Pad6)*%
X201287000Y-94737000D03*
%TD*%
D10*
%TO.P,J3,1,Pin_1*%
%TO.N,Net-(J2-Pad4)*%
X188906000Y-81378000D03*
D11*
%TO.P,J3,2,Pin_2*%
%TO.N,Net-(J2-Pad5)*%
X188906000Y-78838000D03*
%TO.P,J3,3,Pin_3*%
%TO.N,Net-(J2-Pad6)*%
X188906000Y-76298000D03*
%TD*%
D12*
%TO.P,J1,1,Pin_1*%
%TO.N,Net-(J1-Pad1)*%
X181284000Y-122320000D03*
D11*
%TO.P,J1,2,Pin_2*%
%TO.N,Net-(J1-Pad2)*%
X181284000Y-124860000D03*
%TO.P,J1,3,Pin_3*%
%TO.N,Net-(J1-Pad3)*%
X181284000Y-127400000D03*
%TD*%
D10*
%TO.P,J3,1,Pin_1*%
%TO.N,Net-(J2-Pad4)*%
X201287000Y-118219000D03*
D11*
%TO.P,J3,2,Pin_2*%
%TO.N,Net-(J2-Pad5)*%
X201287000Y-115679000D03*
%TO.P,J3,3,Pin_3*%
%TO.N,Net-(J2-Pad6)*%
X201287000Y-113139000D03*
%TD*%
D10*
%TO.P,J3,1,Pin_1*%
%TO.N,Net-(J2-Pad4)*%
X114484000Y-81358000D03*
D11*
%TO.P,J3,2,Pin_2*%
%TO.N,Net-(J2-Pad5)*%
X114484000Y-78818000D03*
%TO.P,J3,3,Pin_3*%
%TO.N,Net-(J2-Pad6)*%
X114484000Y-76278000D03*
%TD*%
D10*
%TO.P,J3,1,Pin_1*%
%TO.N,Net-(J2-Pad4)*%
X176506000Y-145756000D03*
D11*
%TO.P,J3,2,Pin_2*%
%TO.N,Net-(J2-Pad5)*%
X176506000Y-143216000D03*
%TO.P,J3,3,Pin_3*%
%TO.N,Net-(J2-Pad6)*%
X176506000Y-140676000D03*
%TD*%
D12*
%TO.P,J1,1,Pin_1*%
%TO.N,Net-(J1-Pad1)*%
X131662000Y-57800000D03*
D11*
%TO.P,J1,2,Pin_2*%
%TO.N,Net-(J1-Pad2)*%
X131662000Y-60340000D03*
%TO.P,J1,3,Pin_3*%
%TO.N,Net-(J1-Pad3)*%
X131662000Y-62880000D03*
%TD*%
D10*
%TO.P,J3,1,Pin_1*%
%TO.N,Net-(J2-Pad4)*%
X139306000Y-72152000D03*
D11*
%TO.P,J3,2,Pin_2*%
%TO.N,Net-(J2-Pad5)*%
X139306000Y-69612000D03*
%TO.P,J3,3,Pin_3*%
%TO.N,Net-(J2-Pad6)*%
X139306000Y-67072000D03*
%TD*%
D10*
%TO.P,J3,1,Pin_1*%
%TO.N,Net-(J2-Pad4)*%
X151684000Y-62858000D03*
D11*
%TO.P,J3,2,Pin_2*%
%TO.N,Net-(J2-Pad5)*%
X151684000Y-60318000D03*
%TO.P,J3,3,Pin_3*%
%TO.N,Net-(J2-Pad6)*%
X151684000Y-57778000D03*
%TD*%
D12*
%TO.P,J1,1,Pin_1*%
%TO.N,Net-(J1-Pad1)*%
X181284000Y-85530000D03*
D11*
%TO.P,J1,2,Pin_2*%
%TO.N,Net-(J1-Pad2)*%
X181284000Y-88070000D03*
%TO.P,J1,3,Pin_3*%
%TO.N,Net-(J1-Pad3)*%
X181284000Y-90610000D03*
%TD*%
D12*
%TO.P,J1,1,Pin_1*%
%TO.N,Net-(J1-Pad1)*%
X106840000Y-57800000D03*
D11*
%TO.P,J1,2,Pin_2*%
%TO.N,Net-(J1-Pad2)*%
X106840000Y-60340000D03*
%TO.P,J1,3,Pin_3*%
%TO.N,Net-(J1-Pad3)*%
X106840000Y-62880000D03*
%TD*%
D10*
%TO.P,J3,1,Pin_1*%
%TO.N,Net-(J2-Pad4)*%
X126906000Y-145778000D03*
D11*
%TO.P,J3,2,Pin_2*%
%TO.N,Net-(J2-Pad5)*%
X126906000Y-143238000D03*
%TO.P,J3,3,Pin_3*%
%TO.N,Net-(J2-Pad6)*%
X126906000Y-140698000D03*
%TD*%
D12*
%TO.P,J1,1,Pin_1*%
%TO.N,Net-(J1-Pad1)*%
X131684000Y-103888000D03*
D11*
%TO.P,J1,2,Pin_2*%
%TO.N,Net-(J1-Pad2)*%
X131684000Y-106428000D03*
%TO.P,J1,3,Pin_3*%
%TO.N,Net-(J1-Pad3)*%
X131684000Y-108968000D03*
%TD*%
D10*
%TO.P,J3,1,Pin_1*%
%TO.N,Net-(J2-Pad4)*%
X114484000Y-72152000D03*
D11*
%TO.P,J3,2,Pin_2*%
%TO.N,Net-(J2-Pad5)*%
X114484000Y-69612000D03*
%TO.P,J3,3,Pin_3*%
%TO.N,Net-(J2-Pad6)*%
X114484000Y-67072000D03*
%TD*%
D12*
%TO.P,J1,1,Pin_1*%
%TO.N,Net-(J1-Pad1)*%
X144084000Y-113100000D03*
D11*
%TO.P,J1,2,Pin_2*%
%TO.N,Net-(J1-Pad2)*%
X144084000Y-115640000D03*
%TO.P,J1,3,Pin_3*%
%TO.N,Net-(J1-Pad3)*%
X144084000Y-118180000D03*
%TD*%
D10*
%TO.P,J3,1,Pin_1*%
%TO.N,Net-(J2-Pad4)*%
X201287000Y-90629000D03*
D11*
%TO.P,J3,2,Pin_2*%
%TO.N,Net-(J2-Pad5)*%
X201287000Y-88089000D03*
%TO.P,J3,3,Pin_3*%
%TO.N,Net-(J2-Pad6)*%
X201287000Y-85549000D03*
%TD*%
D10*
%TO.P,J3,1,Pin_1*%
%TO.N,Net-(J2-Pad4)*%
X126906000Y-72172000D03*
D11*
%TO.P,J3,2,Pin_2*%
%TO.N,Net-(J2-Pad5)*%
X126906000Y-69632000D03*
%TO.P,J3,3,Pin_3*%
%TO.N,Net-(J2-Pad6)*%
X126906000Y-67092000D03*
%TD*%
D12*
%TO.P,J1,1,Pin_1*%
%TO.N,Net-(J1-Pad1)*%
X156484000Y-131498000D03*
D11*
%TO.P,J1,2,Pin_2*%
%TO.N,Net-(J1-Pad2)*%
X156484000Y-134038000D03*
%TO.P,J1,3,Pin_3*%
%TO.N,Net-(J1-Pad3)*%
X156484000Y-136578000D03*
%TD*%
D12*
%TO.P,J1,1,Pin_1*%
%TO.N,Net-(J1-Pad1)*%
X181284000Y-113120000D03*
D11*
%TO.P,J1,2,Pin_2*%
%TO.N,Net-(J1-Pad2)*%
X181284000Y-115660000D03*
%TO.P,J1,3,Pin_3*%
%TO.N,Net-(J1-Pad3)*%
X181284000Y-118200000D03*
%TD*%
D12*
%TO.P,J1,1,Pin_1*%
%TO.N,Net-(J1-Pad1)*%
X106862000Y-131500000D03*
D11*
%TO.P,J1,2,Pin_2*%
%TO.N,Net-(J1-Pad2)*%
X106862000Y-134040000D03*
%TO.P,J1,3,Pin_3*%
%TO.N,Net-(J1-Pad3)*%
X106862000Y-136580000D03*
%TD*%
D12*
%TO.P,J1,1,Pin_1*%
%TO.N,Net-(J1-Pad1)*%
X193665000Y-94759000D03*
D11*
%TO.P,J1,2,Pin_2*%
%TO.N,Net-(J1-Pad2)*%
X193665000Y-97299000D03*
%TO.P,J1,3,Pin_3*%
%TO.N,Net-(J1-Pad3)*%
X193665000Y-99839000D03*
%TD*%
D10*
%TO.P,J3,1,Pin_1*%
%TO.N,Net-(J2-Pad4)*%
X151706000Y-145758000D03*
D11*
%TO.P,J3,2,Pin_2*%
%TO.N,Net-(J2-Pad5)*%
X151706000Y-143218000D03*
%TO.P,J3,3,Pin_3*%
%TO.N,Net-(J2-Pad6)*%
X151706000Y-140678000D03*
%TD*%
D12*
%TO.P,J1,1,Pin_1*%
%TO.N,Net-(J1-Pad1)*%
X119284000Y-113120000D03*
D11*
%TO.P,J1,2,Pin_2*%
%TO.N,Net-(J1-Pad2)*%
X119284000Y-115660000D03*
%TO.P,J1,3,Pin_3*%
%TO.N,Net-(J1-Pad3)*%
X119284000Y-118200000D03*
%TD*%
D10*
%TO.P,J3,1,Pin_1*%
%TO.N,Net-(J2-Pad4)*%
X201265000Y-62919000D03*
D11*
%TO.P,J3,2,Pin_2*%
%TO.N,Net-(J2-Pad5)*%
X201265000Y-60379000D03*
%TO.P,J3,3,Pin_3*%
%TO.N,Net-(J2-Pad6)*%
X201265000Y-57839000D03*
%TD*%
D12*
%TO.P,J1,1,Pin_1*%
%TO.N,Net-(J1-Pad1)*%
X193665000Y-67155000D03*
D11*
%TO.P,J1,2,Pin_2*%
%TO.N,Net-(J1-Pad2)*%
X193665000Y-69695000D03*
%TO.P,J1,3,Pin_3*%
%TO.N,Net-(J1-Pad3)*%
X193665000Y-72235000D03*
%TD*%
D10*
%TO.P,J3,1,Pin_1*%
%TO.N,Net-(J2-Pad4)*%
X139306000Y-145758000D03*
D11*
%TO.P,J3,2,Pin_2*%
%TO.N,Net-(J2-Pad5)*%
X139306000Y-143218000D03*
%TO.P,J3,3,Pin_3*%
%TO.N,Net-(J2-Pad6)*%
X139306000Y-140678000D03*
%TD*%
D12*
%TO.P,J1,1,Pin_1*%
%TO.N,Net-(J1-Pad1)*%
X119262000Y-57820000D03*
D11*
%TO.P,J1,2,Pin_2*%
%TO.N,Net-(J1-Pad2)*%
X119262000Y-60360000D03*
%TO.P,J1,3,Pin_3*%
%TO.N,Net-(J1-Pad3)*%
X119262000Y-62900000D03*
%TD*%
D12*
%TO.P,J1,1,Pin_1*%
%TO.N,Net-(J1-Pad1)*%
X131684000Y-140700000D03*
D11*
%TO.P,J1,2,Pin_2*%
%TO.N,Net-(J1-Pad2)*%
X131684000Y-143240000D03*
%TO.P,J1,3,Pin_3*%
%TO.N,Net-(J1-Pad3)*%
X131684000Y-145780000D03*
%TD*%
D12*
%TO.P,J1,1,Pin_1*%
%TO.N,Net-(J1-Pad1)*%
X181284000Y-131520000D03*
D11*
%TO.P,J1,2,Pin_2*%
%TO.N,Net-(J1-Pad2)*%
X181284000Y-134060000D03*
%TO.P,J1,3,Pin_3*%
%TO.N,Net-(J1-Pad3)*%
X181284000Y-136600000D03*
%TD*%
D10*
%TO.P,J3,1,Pin_1*%
%TO.N,Net-(J2-Pad4)*%
X151706000Y-72152000D03*
D11*
%TO.P,J3,2,Pin_2*%
%TO.N,Net-(J2-Pad5)*%
X151706000Y-69612000D03*
%TO.P,J3,3,Pin_3*%
%TO.N,Net-(J2-Pad6)*%
X151706000Y-67072000D03*
%TD*%
D10*
%TO.P,J3,1,Pin_1*%
%TO.N,Net-(J2-Pad4)*%
X188884000Y-62878000D03*
D11*
%TO.P,J3,2,Pin_2*%
%TO.N,Net-(J2-Pad5)*%
X188884000Y-60338000D03*
%TO.P,J3,3,Pin_3*%
%TO.N,Net-(J2-Pad6)*%
X188884000Y-57798000D03*
%TD*%
D10*
%TO.P,J3,1,Pin_1*%
%TO.N,Net-(J2-Pad4)*%
X188906000Y-99776000D03*
D11*
%TO.P,J3,2,Pin_2*%
%TO.N,Net-(J2-Pad5)*%
X188906000Y-97236000D03*
%TO.P,J3,3,Pin_3*%
%TO.N,Net-(J2-Pad6)*%
X188906000Y-94696000D03*
%TD*%
D12*
%TO.P,J1,1,Pin_1*%
%TO.N,Net-(J1-Pad1)*%
X156462000Y-57798000D03*
D11*
%TO.P,J1,2,Pin_2*%
%TO.N,Net-(J1-Pad2)*%
X156462000Y-60338000D03*
%TO.P,J1,3,Pin_3*%
%TO.N,Net-(J1-Pad3)*%
X156462000Y-62878000D03*
%TD*%
D12*
%TO.P,J1,1,Pin_1*%
%TO.N,Net-(J1-Pad1)*%
X119284000Y-122320000D03*
D11*
%TO.P,J1,2,Pin_2*%
%TO.N,Net-(J1-Pad2)*%
X119284000Y-124860000D03*
%TO.P,J1,3,Pin_3*%
%TO.N,Net-(J1-Pad3)*%
X119284000Y-127400000D03*
%TD*%
D10*
%TO.P,J3,1,Pin_1*%
%TO.N,Net-(J2-Pad4)*%
X126906000Y-108966000D03*
D11*
%TO.P,J3,2,Pin_2*%
%TO.N,Net-(J2-Pad5)*%
X126906000Y-106426000D03*
%TO.P,J3,3,Pin_3*%
%TO.N,Net-(J2-Pad6)*%
X126906000Y-103886000D03*
%TD*%
D12*
%TO.P,J1,1,Pin_1*%
%TO.N,Net-(J1-Pad1)*%
X119284000Y-140720000D03*
D11*
%TO.P,J1,2,Pin_2*%
%TO.N,Net-(J1-Pad2)*%
X119284000Y-143260000D03*
%TO.P,J1,3,Pin_3*%
%TO.N,Net-(J1-Pad3)*%
X119284000Y-145800000D03*
%TD*%
D10*
%TO.P,J3,1,Pin_1*%
%TO.N,Net-(J2-Pad4)*%
X164106000Y-90566000D03*
D11*
%TO.P,J3,2,Pin_2*%
%TO.N,Net-(J2-Pad5)*%
X164106000Y-88026000D03*
%TO.P,J3,3,Pin_3*%
%TO.N,Net-(J2-Pad6)*%
X164106000Y-85486000D03*
%TD*%
D10*
%TO.P,J3,1,Pin_1*%
%TO.N,Net-(J2-Pad4)*%
X114484000Y-127358000D03*
D11*
%TO.P,J3,2,Pin_2*%
%TO.N,Net-(J2-Pad5)*%
X114484000Y-124818000D03*
%TO.P,J3,3,Pin_3*%
%TO.N,Net-(J2-Pad6)*%
X114484000Y-122278000D03*
%TD*%
D12*
%TO.P,J1,1,Pin_1*%
%TO.N,Net-(J1-Pad1)*%
X106862000Y-103888000D03*
D11*
%TO.P,J1,2,Pin_2*%
%TO.N,Net-(J1-Pad2)*%
X106862000Y-106428000D03*
%TO.P,J1,3,Pin_3*%
%TO.N,Net-(J1-Pad3)*%
X106862000Y-108968000D03*
%TD*%
D12*
%TO.P,J1,1,Pin_1*%
%TO.N,Net-(J1-Pad1)*%
X106862000Y-67094000D03*
D11*
%TO.P,J1,2,Pin_2*%
%TO.N,Net-(J1-Pad2)*%
X106862000Y-69634000D03*
%TO.P,J1,3,Pin_3*%
%TO.N,Net-(J1-Pad3)*%
X106862000Y-72174000D03*
%TD*%
D10*
%TO.P,J3,1,Pin_1*%
%TO.N,Net-(J2-Pad4)*%
X139306000Y-118158000D03*
D11*
%TO.P,J3,2,Pin_2*%
%TO.N,Net-(J2-Pad5)*%
X139306000Y-115618000D03*
%TO.P,J3,3,Pin_3*%
%TO.N,Net-(J2-Pad6)*%
X139306000Y-113078000D03*
%TD*%
D12*
%TO.P,J1,1,Pin_1*%
%TO.N,Net-(J1-Pad1)*%
X144084000Y-85510000D03*
D11*
%TO.P,J1,2,Pin_2*%
%TO.N,Net-(J1-Pad2)*%
X144084000Y-88050000D03*
%TO.P,J1,3,Pin_3*%
%TO.N,Net-(J1-Pad3)*%
X144084000Y-90590000D03*
%TD*%
D12*
%TO.P,J1,1,Pin_1*%
%TO.N,Net-(J1-Pad1)*%
X106862000Y-94698000D03*
D11*
%TO.P,J1,2,Pin_2*%
%TO.N,Net-(J1-Pad2)*%
X106862000Y-97238000D03*
%TO.P,J1,3,Pin_3*%
%TO.N,Net-(J1-Pad3)*%
X106862000Y-99778000D03*
%TD*%
D12*
%TO.P,J1,1,Pin_1*%
%TO.N,Net-(J1-Pad1)*%
X106862000Y-122300000D03*
D11*
%TO.P,J1,2,Pin_2*%
%TO.N,Net-(J1-Pad2)*%
X106862000Y-124840000D03*
%TO.P,J1,3,Pin_3*%
%TO.N,Net-(J1-Pad3)*%
X106862000Y-127380000D03*
%TD*%
D12*
%TO.P,J1,1,Pin_1*%
%TO.N,Net-(J1-Pad1)*%
X131684000Y-94698000D03*
D11*
%TO.P,J1,2,Pin_2*%
%TO.N,Net-(J1-Pad2)*%
X131684000Y-97238000D03*
%TO.P,J1,3,Pin_3*%
%TO.N,Net-(J1-Pad3)*%
X131684000Y-99778000D03*
%TD*%
D10*
%TO.P,J3,1,Pin_1*%
%TO.N,Net-(J2-Pad4)*%
X114484000Y-145758000D03*
D11*
%TO.P,J3,2,Pin_2*%
%TO.N,Net-(J2-Pad5)*%
X114484000Y-143218000D03*
%TO.P,J3,3,Pin_3*%
%TO.N,Net-(J2-Pad6)*%
X114484000Y-140678000D03*
%TD*%
D12*
%TO.P,J1,1,Pin_1*%
%TO.N,Net-(J1-Pad1)*%
X193665000Y-140761000D03*
D11*
%TO.P,J1,2,Pin_2*%
%TO.N,Net-(J1-Pad2)*%
X193665000Y-143301000D03*
%TO.P,J1,3,Pin_3*%
%TO.N,Net-(J1-Pad3)*%
X193665000Y-145841000D03*
%TD*%
D10*
%TO.P,J3,1,Pin_1*%
%TO.N,Net-(J2-Pad4)*%
X114484000Y-99756000D03*
D11*
%TO.P,J3,2,Pin_2*%
%TO.N,Net-(J2-Pad5)*%
X114484000Y-97216000D03*
%TO.P,J3,3,Pin_3*%
%TO.N,Net-(J2-Pad6)*%
X114484000Y-94676000D03*
%TD*%
D12*
%TO.P,J1,1,Pin_1*%
%TO.N,Net-(J1-Pad1)*%
X181284000Y-94718000D03*
D11*
%TO.P,J1,2,Pin_2*%
%TO.N,Net-(J1-Pad2)*%
X181284000Y-97258000D03*
%TO.P,J1,3,Pin_3*%
%TO.N,Net-(J1-Pad3)*%
X181284000Y-99798000D03*
%TD*%
D10*
%TO.P,J3,1,Pin_1*%
%TO.N,Net-(J2-Pad4)*%
X114462000Y-62858000D03*
D11*
%TO.P,J3,2,Pin_2*%
%TO.N,Net-(J2-Pad5)*%
X114462000Y-60318000D03*
%TO.P,J3,3,Pin_3*%
%TO.N,Net-(J2-Pad6)*%
X114462000Y-57778000D03*
%TD*%
D12*
%TO.P,J1,1,Pin_1*%
%TO.N,Net-(J1-Pad1)*%
X193665000Y-131561000D03*
D11*
%TO.P,J1,2,Pin_2*%
%TO.N,Net-(J1-Pad2)*%
X193665000Y-134101000D03*
%TO.P,J1,3,Pin_3*%
%TO.N,Net-(J1-Pad3)*%
X193665000Y-136641000D03*
%TD*%
D10*
%TO.P,J3,1,Pin_1*%
%TO.N,Net-(J2-Pad4)*%
X139306000Y-90568000D03*
D11*
%TO.P,J3,2,Pin_2*%
%TO.N,Net-(J2-Pad5)*%
X139306000Y-88028000D03*
%TO.P,J3,3,Pin_3*%
%TO.N,Net-(J2-Pad6)*%
X139306000Y-85488000D03*
%TD*%
D12*
%TO.P,J1,1,Pin_1*%
%TO.N,Net-(J1-Pad1)*%
X168862000Y-57798000D03*
D11*
%TO.P,J1,2,Pin_2*%
%TO.N,Net-(J1-Pad2)*%
X168862000Y-60338000D03*
%TO.P,J1,3,Pin_3*%
%TO.N,Net-(J1-Pad3)*%
X168862000Y-62878000D03*
%TD*%
D10*
%TO.P,J3,1,Pin_1*%
%TO.N,Net-(J2-Pad4)*%
X139306000Y-108946000D03*
D11*
%TO.P,J3,2,Pin_2*%
%TO.N,Net-(J2-Pad5)*%
X139306000Y-106406000D03*
%TO.P,J3,3,Pin_3*%
%TO.N,Net-(J2-Pad6)*%
X139306000Y-103866000D03*
%TD*%
D12*
%TO.P,J1,1,Pin_1*%
%TO.N,Net-(J1-Pad1)*%
X168884000Y-76298000D03*
D11*
%TO.P,J1,2,Pin_2*%
%TO.N,Net-(J1-Pad2)*%
X168884000Y-78838000D03*
%TO.P,J1,3,Pin_3*%
%TO.N,Net-(J1-Pad3)*%
X168884000Y-81378000D03*
%TD*%
D12*
%TO.P,J1,1,Pin_1*%
%TO.N,Net-(J1-Pad1)*%
X168884000Y-67092000D03*
D11*
%TO.P,J1,2,Pin_2*%
%TO.N,Net-(J1-Pad2)*%
X168884000Y-69632000D03*
%TO.P,J1,3,Pin_3*%
%TO.N,Net-(J1-Pad3)*%
X168884000Y-72172000D03*
%TD*%
D10*
%TO.P,J3,1,Pin_1*%
%TO.N,Net-(J2-Pad4)*%
X164106000Y-99754000D03*
D11*
%TO.P,J3,2,Pin_2*%
%TO.N,Net-(J2-Pad5)*%
X164106000Y-97214000D03*
%TO.P,J3,3,Pin_3*%
%TO.N,Net-(J2-Pad6)*%
X164106000Y-94674000D03*
%TD*%
D10*
%TO.P,J3,1,Pin_1*%
%TO.N,Net-(J2-Pad4)*%
X176506000Y-118156000D03*
D11*
%TO.P,J3,2,Pin_2*%
%TO.N,Net-(J2-Pad5)*%
X176506000Y-115616000D03*
%TO.P,J3,3,Pin_3*%
%TO.N,Net-(J2-Pad6)*%
X176506000Y-113076000D03*
%TD*%
D10*
%TO.P,J3,1,Pin_1*%
%TO.N,Net-(J2-Pad4)*%
X114484000Y-90568000D03*
D11*
%TO.P,J3,2,Pin_2*%
%TO.N,Net-(J2-Pad5)*%
X114484000Y-88028000D03*
%TO.P,J3,3,Pin_3*%
%TO.N,Net-(J2-Pad6)*%
X114484000Y-85488000D03*
%TD*%
D10*
%TO.P,J3,1,Pin_1*%
%TO.N,Net-(J2-Pad4)*%
X201287000Y-145819000D03*
D11*
%TO.P,J3,2,Pin_2*%
%TO.N,Net-(J2-Pad5)*%
X201287000Y-143279000D03*
%TO.P,J3,3,Pin_3*%
%TO.N,Net-(J2-Pad6)*%
X201287000Y-140739000D03*
%TD*%
D10*
%TO.P,J3,1,Pin_1*%
%TO.N,Net-(J2-Pad4)*%
X176506000Y-81356000D03*
D11*
%TO.P,J3,2,Pin_2*%
%TO.N,Net-(J2-Pad5)*%
X176506000Y-78816000D03*
%TO.P,J3,3,Pin_3*%
%TO.N,Net-(J2-Pad6)*%
X176506000Y-76276000D03*
%TD*%
D10*
%TO.P,J3,1,Pin_1*%
%TO.N,Net-(J2-Pad4)*%
X188906000Y-72172000D03*
D11*
%TO.P,J3,2,Pin_2*%
%TO.N,Net-(J2-Pad5)*%
X188906000Y-69632000D03*
%TO.P,J3,3,Pin_3*%
%TO.N,Net-(J2-Pad6)*%
X188906000Y-67092000D03*
%TD*%
D10*
%TO.P,J3,1,Pin_1*%
%TO.N,Net-(J2-Pad4)*%
X164106000Y-118156000D03*
D11*
%TO.P,J3,2,Pin_2*%
%TO.N,Net-(J2-Pad5)*%
X164106000Y-115616000D03*
%TO.P,J3,3,Pin_3*%
%TO.N,Net-(J2-Pad6)*%
X164106000Y-113076000D03*
%TD*%
D10*
%TO.P,J3,1,Pin_1*%
%TO.N,Net-(J2-Pad4)*%
X139306000Y-99756000D03*
D11*
%TO.P,J3,2,Pin_2*%
%TO.N,Net-(J2-Pad5)*%
X139306000Y-97216000D03*
%TO.P,J3,3,Pin_3*%
%TO.N,Net-(J2-Pad6)*%
X139306000Y-94676000D03*
%TD*%
D10*
%TO.P,J3,1,Pin_1*%
%TO.N,Net-(J2-Pad4)*%
X114484000Y-118158000D03*
D11*
%TO.P,J3,2,Pin_2*%
%TO.N,Net-(J2-Pad5)*%
X114484000Y-115618000D03*
%TO.P,J3,3,Pin_3*%
%TO.N,Net-(J2-Pad6)*%
X114484000Y-113078000D03*
%TD*%
D12*
%TO.P,J1,1,Pin_1*%
%TO.N,Net-(J1-Pad1)*%
X144084000Y-76300000D03*
D11*
%TO.P,J1,2,Pin_2*%
%TO.N,Net-(J1-Pad2)*%
X144084000Y-78840000D03*
%TO.P,J1,3,Pin_3*%
%TO.N,Net-(J1-Pad3)*%
X144084000Y-81380000D03*
%TD*%
D12*
%TO.P,J1,1,Pin_1*%
%TO.N,Net-(J1-Pad1)*%
X144084000Y-122300000D03*
D11*
%TO.P,J1,2,Pin_2*%
%TO.N,Net-(J1-Pad2)*%
X144084000Y-124840000D03*
%TO.P,J1,3,Pin_3*%
%TO.N,Net-(J1-Pad3)*%
X144084000Y-127380000D03*
%TD*%
D10*
%TO.P,J3,1,Pin_1*%
%TO.N,Net-(J2-Pad4)*%
X126906000Y-118178000D03*
D11*
%TO.P,J3,2,Pin_2*%
%TO.N,Net-(J2-Pad5)*%
X126906000Y-115638000D03*
%TO.P,J3,3,Pin_3*%
%TO.N,Net-(J2-Pad6)*%
X126906000Y-113098000D03*
%TD*%
D10*
%TO.P,J3,1,Pin_1*%
%TO.N,Net-(J2-Pad4)*%
X114484000Y-136558000D03*
D11*
%TO.P,J3,2,Pin_2*%
%TO.N,Net-(J2-Pad5)*%
X114484000Y-134018000D03*
%TO.P,J3,3,Pin_3*%
%TO.N,Net-(J2-Pad6)*%
X114484000Y-131478000D03*
%TD*%
D12*
%TO.P,J1,1,Pin_1*%
%TO.N,Net-(J1-Pad1)*%
X106862000Y-85510000D03*
D11*
%TO.P,J1,2,Pin_2*%
%TO.N,Net-(J1-Pad2)*%
X106862000Y-88050000D03*
%TO.P,J1,3,Pin_3*%
%TO.N,Net-(J1-Pad3)*%
X106862000Y-90590000D03*
%TD*%
D10*
%TO.P,J3,1,Pin_1*%
%TO.N,Net-(J2-Pad4)*%
X151706000Y-99756000D03*
D11*
%TO.P,J3,2,Pin_2*%
%TO.N,Net-(J2-Pad5)*%
X151706000Y-97216000D03*
%TO.P,J3,3,Pin_3*%
%TO.N,Net-(J2-Pad6)*%
X151706000Y-94676000D03*
%TD*%
D12*
%TO.P,J1,1,Pin_1*%
%TO.N,Net-(J1-Pad1)*%
X144084000Y-103888000D03*
D11*
%TO.P,J1,2,Pin_2*%
%TO.N,Net-(J1-Pad2)*%
X144084000Y-106428000D03*
%TO.P,J1,3,Pin_3*%
%TO.N,Net-(J1-Pad3)*%
X144084000Y-108968000D03*
%TD*%
D12*
%TO.P,J1,1,Pin_1*%
%TO.N,Net-(J1-Pad1)*%
X168884000Y-103886000D03*
D11*
%TO.P,J1,2,Pin_2*%
%TO.N,Net-(J1-Pad2)*%
X168884000Y-106426000D03*
%TO.P,J1,3,Pin_3*%
%TO.N,Net-(J1-Pad3)*%
X168884000Y-108966000D03*
%TD*%
D10*
%TO.P,J3,1,Pin_1*%
%TO.N,Net-(J2-Pad4)*%
X176506000Y-72150000D03*
D11*
%TO.P,J3,2,Pin_2*%
%TO.N,Net-(J2-Pad5)*%
X176506000Y-69610000D03*
%TO.P,J3,3,Pin_3*%
%TO.N,Net-(J2-Pad6)*%
X176506000Y-67070000D03*
%TD*%
D10*
%TO.P,J3,1,Pin_1*%
%TO.N,Net-(J2-Pad4)*%
X164106000Y-108944000D03*
D11*
%TO.P,J3,2,Pin_2*%
%TO.N,Net-(J2-Pad5)*%
X164106000Y-106404000D03*
%TO.P,J3,3,Pin_3*%
%TO.N,Net-(J2-Pad6)*%
X164106000Y-103864000D03*
%TD*%
D10*
%TO.P,J3,1,Pin_1*%
%TO.N,Net-(J2-Pad4)*%
X176484000Y-62856000D03*
D11*
%TO.P,J3,2,Pin_2*%
%TO.N,Net-(J2-Pad5)*%
X176484000Y-60316000D03*
%TO.P,J3,3,Pin_3*%
%TO.N,Net-(J2-Pad6)*%
X176484000Y-57776000D03*
%TD*%
D12*
%TO.P,J1,1,Pin_1*%
%TO.N,Net-(J1-Pad1)*%
X119284000Y-94718000D03*
D11*
%TO.P,J1,2,Pin_2*%
%TO.N,Net-(J1-Pad2)*%
X119284000Y-97258000D03*
%TO.P,J1,3,Pin_3*%
%TO.N,Net-(J1-Pad3)*%
X119284000Y-99798000D03*
%TD*%
D12*
%TO.P,J1,1,Pin_1*%
%TO.N,Net-(J1-Pad1)*%
X131684000Y-85510000D03*
D11*
%TO.P,J1,2,Pin_2*%
%TO.N,Net-(J1-Pad2)*%
X131684000Y-88050000D03*
%TO.P,J1,3,Pin_3*%
%TO.N,Net-(J1-Pad3)*%
X131684000Y-90590000D03*
%TD*%
D12*
%TO.P,J1,1,Pin_1*%
%TO.N,Net-(J1-Pad1)*%
X168884000Y-140698000D03*
D11*
%TO.P,J1,2,Pin_2*%
%TO.N,Net-(J1-Pad2)*%
X168884000Y-143238000D03*
%TO.P,J1,3,Pin_3*%
%TO.N,Net-(J1-Pad3)*%
X168884000Y-145778000D03*
%TD*%
D12*
%TO.P,J1,1,Pin_1*%
%TO.N,Net-(J1-Pad1)*%
X144062000Y-57800000D03*
D11*
%TO.P,J1,2,Pin_2*%
%TO.N,Net-(J1-Pad2)*%
X144062000Y-60340000D03*
%TO.P,J1,3,Pin_3*%
%TO.N,Net-(J1-Pad3)*%
X144062000Y-62880000D03*
%TD*%
D12*
%TO.P,J1,1,Pin_1*%
%TO.N,Net-(J1-Pad1)*%
X119284000Y-76320000D03*
D11*
%TO.P,J1,2,Pin_2*%
%TO.N,Net-(J1-Pad2)*%
X119284000Y-78860000D03*
%TO.P,J1,3,Pin_3*%
%TO.N,Net-(J1-Pad3)*%
X119284000Y-81400000D03*
%TD*%
D10*
%TO.P,J3,1,Pin_1*%
%TO.N,Net-(J2-Pad4)*%
X188906000Y-90588000D03*
D11*
%TO.P,J3,2,Pin_2*%
%TO.N,Net-(J2-Pad5)*%
X188906000Y-88048000D03*
%TO.P,J3,3,Pin_3*%
%TO.N,Net-(J2-Pad6)*%
X188906000Y-85508000D03*
%TD*%
D10*
%TO.P,J3,1,Pin_1*%
%TO.N,Net-(J2-Pad4)*%
X201287000Y-72213000D03*
D11*
%TO.P,J3,2,Pin_2*%
%TO.N,Net-(J2-Pad5)*%
X201287000Y-69673000D03*
%TO.P,J3,3,Pin_3*%
%TO.N,Net-(J2-Pad6)*%
X201287000Y-67133000D03*
%TD*%
D12*
%TO.P,J1,1,Pin_1*%
%TO.N,Net-(J1-Pad1)*%
X168884000Y-122298000D03*
D11*
%TO.P,J1,2,Pin_2*%
%TO.N,Net-(J1-Pad2)*%
X168884000Y-124838000D03*
%TO.P,J1,3,Pin_3*%
%TO.N,Net-(J1-Pad3)*%
X168884000Y-127378000D03*
%TD*%
D12*
%TO.P,J1,1,Pin_1*%
%TO.N,Net-(J1-Pad1)*%
X193665000Y-113161000D03*
D11*
%TO.P,J1,2,Pin_2*%
%TO.N,Net-(J1-Pad2)*%
X193665000Y-115701000D03*
%TO.P,J1,3,Pin_3*%
%TO.N,Net-(J1-Pad3)*%
X193665000Y-118241000D03*
%TD*%
D10*
%TO.P,J3,1,Pin_1*%
%TO.N,Net-(J2-Pad4)*%
X201287000Y-127419000D03*
D11*
%TO.P,J3,2,Pin_2*%
%TO.N,Net-(J2-Pad5)*%
X201287000Y-124879000D03*
%TO.P,J3,3,Pin_3*%
%TO.N,Net-(J2-Pad6)*%
X201287000Y-122339000D03*
%TD*%
D10*
%TO.P,J3,1,Pin_1*%
%TO.N,Net-(J2-Pad4)*%
X126906000Y-90588000D03*
D11*
%TO.P,J3,2,Pin_2*%
%TO.N,Net-(J2-Pad5)*%
X126906000Y-88048000D03*
%TO.P,J3,3,Pin_3*%
%TO.N,Net-(J2-Pad6)*%
X126906000Y-85508000D03*
%TD*%
D10*
%TO.P,J3,1,Pin_1*%
%TO.N,Net-(J2-Pad4)*%
X151706000Y-127358000D03*
D11*
%TO.P,J3,2,Pin_2*%
%TO.N,Net-(J2-Pad5)*%
X151706000Y-124818000D03*
%TO.P,J3,3,Pin_3*%
%TO.N,Net-(J2-Pad6)*%
X151706000Y-122278000D03*
%TD*%
D12*
%TO.P,J1,1,Pin_1*%
%TO.N,Net-(J1-Pad1)*%
X193643000Y-57861000D03*
D11*
%TO.P,J1,2,Pin_2*%
%TO.N,Net-(J1-Pad2)*%
X193643000Y-60401000D03*
%TO.P,J1,3,Pin_3*%
%TO.N,Net-(J1-Pad3)*%
X193643000Y-62941000D03*
%TD*%
D10*
%TO.P,J3,1,Pin_1*%
%TO.N,Net-(J2-Pad4)*%
X176506000Y-99754000D03*
D11*
%TO.P,J3,2,Pin_2*%
%TO.N,Net-(J2-Pad5)*%
X176506000Y-97214000D03*
%TO.P,J3,3,Pin_3*%
%TO.N,Net-(J2-Pad6)*%
X176506000Y-94674000D03*
%TD*%
D12*
%TO.P,J1,1,Pin_1*%
%TO.N,Net-(J1-Pad1)*%
X144084000Y-94698000D03*
D11*
%TO.P,J1,2,Pin_2*%
%TO.N,Net-(J1-Pad2)*%
X144084000Y-97238000D03*
%TO.P,J1,3,Pin_3*%
%TO.N,Net-(J1-Pad3)*%
X144084000Y-99778000D03*
%TD*%
D10*
%TO.P,J3,1,Pin_1*%
%TO.N,Net-(J2-Pad4)*%
X151706000Y-90568000D03*
D11*
%TO.P,J3,2,Pin_2*%
%TO.N,Net-(J2-Pad5)*%
X151706000Y-88028000D03*
%TO.P,J3,3,Pin_3*%
%TO.N,Net-(J2-Pad6)*%
X151706000Y-85488000D03*
%TD*%
D12*
%TO.P,J1,1,Pin_1*%
%TO.N,Net-(J1-Pad1)*%
X193665000Y-103949000D03*
D11*
%TO.P,J1,2,Pin_2*%
%TO.N,Net-(J1-Pad2)*%
X193665000Y-106489000D03*
%TO.P,J1,3,Pin_3*%
%TO.N,Net-(J1-Pad3)*%
X193665000Y-109029000D03*
%TD*%
D10*
%TO.P,J3,1,Pin_1*%
%TO.N,Net-(J2-Pad4)*%
X151706000Y-118158000D03*
D11*
%TO.P,J3,2,Pin_2*%
%TO.N,Net-(J2-Pad5)*%
X151706000Y-115618000D03*
%TO.P,J3,3,Pin_3*%
%TO.N,Net-(J2-Pad6)*%
X151706000Y-113078000D03*
%TD*%
D12*
%TO.P,J1,1,Pin_1*%
%TO.N,Net-(J1-Pad1)*%
X168884000Y-94696000D03*
D11*
%TO.P,J1,2,Pin_2*%
%TO.N,Net-(J1-Pad2)*%
X168884000Y-97236000D03*
%TO.P,J1,3,Pin_3*%
%TO.N,Net-(J1-Pad3)*%
X168884000Y-99776000D03*
%TD*%
D12*
%TO.P,J1,1,Pin_1*%
%TO.N,Net-(J1-Pad1)*%
X156484000Y-103886000D03*
D11*
%TO.P,J1,2,Pin_2*%
%TO.N,Net-(J1-Pad2)*%
X156484000Y-106426000D03*
%TO.P,J1,3,Pin_3*%
%TO.N,Net-(J1-Pad3)*%
X156484000Y-108966000D03*
%TD*%
D12*
%TO.P,J1,1,Pin_1*%
%TO.N,Net-(J1-Pad1)*%
X193665000Y-122361000D03*
D11*
%TO.P,J1,2,Pin_2*%
%TO.N,Net-(J1-Pad2)*%
X193665000Y-124901000D03*
%TO.P,J1,3,Pin_3*%
%TO.N,Net-(J1-Pad3)*%
X193665000Y-127441000D03*
%TD*%
M02*
