%TF.GenerationSoftware,KiCad,Pcbnew,6.0.11+dfsg-1~bpo11+1*%
%TF.CreationDate,2023-03-06T17:28:23+08:00*%
%TF.ProjectId,sot2dip - panel,736f7432-6469-4702-902d-2070616e656c,rev?*%
%TF.SameCoordinates,Original*%
%TF.FileFunction,Paste,Top*%
%TF.FilePolarity,Positive*%
%FSLAX46Y46*%
G04 Gerber Fmt 4.6, Leading zero omitted, Abs format (unit mm)*
G04 Created by KiCad (PCBNEW 6.0.11+dfsg-1~bpo11+1) date 2023-03-06 17:28:23*
%MOMM*%
%LPD*%
G01*
G04 APERTURE LIST*
%ADD10R,0.650000X1.560000*%
G04 APERTURE END LIST*
D10*
%TO.C,J2*%
X171722000Y-61539000D03*
X172672000Y-61539000D03*
X173622000Y-61539000D03*
X173622000Y-58839000D03*
X172672000Y-58839000D03*
X171722000Y-58839000D03*
%TD*%
%TO.C,J2*%
X109700000Y-61541000D03*
X110650000Y-61541000D03*
X111600000Y-61541000D03*
X111600000Y-58841000D03*
X110650000Y-58841000D03*
X109700000Y-58841000D03*
%TD*%
%TO.C,J2*%
X146944000Y-126041000D03*
X147894000Y-126041000D03*
X148844000Y-126041000D03*
X148844000Y-123341000D03*
X147894000Y-123341000D03*
X146944000Y-123341000D03*
%TD*%
%TO.C,J2*%
X146944000Y-70835000D03*
X147894000Y-70835000D03*
X148844000Y-70835000D03*
X148844000Y-68135000D03*
X147894000Y-68135000D03*
X146944000Y-68135000D03*
%TD*%
%TO.C,J2*%
X159344000Y-98437000D03*
X160294000Y-98437000D03*
X161244000Y-98437000D03*
X161244000Y-95737000D03*
X160294000Y-95737000D03*
X159344000Y-95737000D03*
%TD*%
%TO.C,J2*%
X109722000Y-70835000D03*
X110672000Y-70835000D03*
X111622000Y-70835000D03*
X111622000Y-68135000D03*
X110672000Y-68135000D03*
X109722000Y-68135000D03*
%TD*%
%TO.C,J2*%
X196525000Y-107690000D03*
X197475000Y-107690000D03*
X198425000Y-107690000D03*
X198425000Y-104990000D03*
X197475000Y-104990000D03*
X196525000Y-104990000D03*
%TD*%
%TO.C,J2*%
X122144000Y-116861000D03*
X123094000Y-116861000D03*
X124044000Y-116861000D03*
X124044000Y-114161000D03*
X123094000Y-114161000D03*
X122144000Y-114161000D03*
%TD*%
%TO.C,J2*%
X196525000Y-135302000D03*
X197475000Y-135302000D03*
X198425000Y-135302000D03*
X198425000Y-132602000D03*
X197475000Y-132602000D03*
X196525000Y-132602000D03*
%TD*%
%TO.C,J2*%
X134544000Y-107629000D03*
X135494000Y-107629000D03*
X136444000Y-107629000D03*
X136444000Y-104929000D03*
X135494000Y-104929000D03*
X134544000Y-104929000D03*
%TD*%
%TO.C,J2*%
X196525000Y-80102000D03*
X197475000Y-80102000D03*
X198425000Y-80102000D03*
X198425000Y-77402000D03*
X197475000Y-77402000D03*
X196525000Y-77402000D03*
%TD*%
%TO.C,J2*%
X171744000Y-89249000D03*
X172694000Y-89249000D03*
X173644000Y-89249000D03*
X173644000Y-86549000D03*
X172694000Y-86549000D03*
X171744000Y-86549000D03*
%TD*%
%TO.C,J2*%
X171744000Y-107627000D03*
X172694000Y-107627000D03*
X173644000Y-107627000D03*
X173644000Y-104927000D03*
X172694000Y-104927000D03*
X171744000Y-104927000D03*
%TD*%
%TO.C,J2*%
X109722000Y-107629000D03*
X110672000Y-107629000D03*
X111622000Y-107629000D03*
X111622000Y-104929000D03*
X110672000Y-104929000D03*
X109722000Y-104929000D03*
%TD*%
%TO.C,J2*%
X134544000Y-98439000D03*
X135494000Y-98439000D03*
X136444000Y-98439000D03*
X136444000Y-95739000D03*
X135494000Y-95739000D03*
X134544000Y-95739000D03*
%TD*%
%TO.C,J2*%
X134544000Y-135241000D03*
X135494000Y-135241000D03*
X136444000Y-135241000D03*
X136444000Y-132541000D03*
X135494000Y-132541000D03*
X134544000Y-132541000D03*
%TD*%
%TO.C,J2*%
X184144000Y-107649000D03*
X185094000Y-107649000D03*
X186044000Y-107649000D03*
X186044000Y-104949000D03*
X185094000Y-104949000D03*
X184144000Y-104949000D03*
%TD*%
%TO.C,J2*%
X109722000Y-80041000D03*
X110672000Y-80041000D03*
X111622000Y-80041000D03*
X111622000Y-77341000D03*
X110672000Y-77341000D03*
X109722000Y-77341000D03*
%TD*%
%TO.C,J2*%
X109722000Y-98439000D03*
X110672000Y-98439000D03*
X111622000Y-98439000D03*
X111622000Y-95739000D03*
X110672000Y-95739000D03*
X109722000Y-95739000D03*
%TD*%
%TO.C,J2*%
X184144000Y-126061000D03*
X185094000Y-126061000D03*
X186044000Y-126061000D03*
X186044000Y-123361000D03*
X185094000Y-123361000D03*
X184144000Y-123361000D03*
%TD*%
%TO.C,J2*%
X184144000Y-89271000D03*
X185094000Y-89271000D03*
X186044000Y-89271000D03*
X186044000Y-86571000D03*
X185094000Y-86571000D03*
X184144000Y-86571000D03*
%TD*%
%TO.C,J2*%
X146944000Y-80041000D03*
X147894000Y-80041000D03*
X148844000Y-80041000D03*
X148844000Y-77341000D03*
X147894000Y-77341000D03*
X146944000Y-77341000D03*
%TD*%
%TO.C,J2*%
X159344000Y-107627000D03*
X160294000Y-107627000D03*
X161244000Y-107627000D03*
X161244000Y-104927000D03*
X160294000Y-104927000D03*
X159344000Y-104927000D03*
%TD*%
%TO.C,J2*%
X159344000Y-116839000D03*
X160294000Y-116839000D03*
X161244000Y-116839000D03*
X161244000Y-114139000D03*
X160294000Y-114139000D03*
X159344000Y-114139000D03*
%TD*%
%TO.C,J2*%
X146944000Y-116841000D03*
X147894000Y-116841000D03*
X148844000Y-116841000D03*
X148844000Y-114141000D03*
X147894000Y-114141000D03*
X146944000Y-114141000D03*
%TD*%
%TO.C,J2*%
X171744000Y-80039000D03*
X172694000Y-80039000D03*
X173644000Y-80039000D03*
X173644000Y-77339000D03*
X172694000Y-77339000D03*
X171744000Y-77339000D03*
%TD*%
%TO.C,J2*%
X122144000Y-107649000D03*
X123094000Y-107649000D03*
X124044000Y-107649000D03*
X124044000Y-104949000D03*
X123094000Y-104949000D03*
X122144000Y-104949000D03*
%TD*%
%TO.C,J2*%
X122144000Y-126061000D03*
X123094000Y-126061000D03*
X124044000Y-126061000D03*
X124044000Y-123361000D03*
X123094000Y-123361000D03*
X122144000Y-123361000D03*
%TD*%
%TO.C,J2*%
X171744000Y-70833000D03*
X172694000Y-70833000D03*
X173644000Y-70833000D03*
X173644000Y-68133000D03*
X172694000Y-68133000D03*
X171744000Y-68133000D03*
%TD*%
%TO.C,J2*%
X196525000Y-144502000D03*
X197475000Y-144502000D03*
X198425000Y-144502000D03*
X198425000Y-141802000D03*
X197475000Y-141802000D03*
X196525000Y-141802000D03*
%TD*%
%TO.C,J2*%
X171744000Y-126039000D03*
X172694000Y-126039000D03*
X173644000Y-126039000D03*
X173644000Y-123339000D03*
X172694000Y-123339000D03*
X171744000Y-123339000D03*
%TD*%
%TO.C,J2*%
X196525000Y-70896000D03*
X197475000Y-70896000D03*
X198425000Y-70896000D03*
X198425000Y-68196000D03*
X197475000Y-68196000D03*
X196525000Y-68196000D03*
%TD*%
%TO.C,J2*%
X146944000Y-107629000D03*
X147894000Y-107629000D03*
X148844000Y-107629000D03*
X148844000Y-104929000D03*
X147894000Y-104929000D03*
X146944000Y-104929000D03*
%TD*%
%TO.C,J2*%
X134544000Y-70835000D03*
X135494000Y-70835000D03*
X136444000Y-70835000D03*
X136444000Y-68135000D03*
X135494000Y-68135000D03*
X134544000Y-68135000D03*
%TD*%
%TO.C,J2*%
X184122000Y-61561000D03*
X185072000Y-61561000D03*
X186022000Y-61561000D03*
X186022000Y-58861000D03*
X185072000Y-58861000D03*
X184122000Y-58861000D03*
%TD*%
%TO.C,J2*%
X122144000Y-135261000D03*
X123094000Y-135261000D03*
X124044000Y-135261000D03*
X124044000Y-132561000D03*
X123094000Y-132561000D03*
X122144000Y-132561000D03*
%TD*%
%TO.C,J2*%
X134544000Y-116841000D03*
X135494000Y-116841000D03*
X136444000Y-116841000D03*
X136444000Y-114141000D03*
X135494000Y-114141000D03*
X134544000Y-114141000D03*
%TD*%
%TO.C,J2*%
X109722000Y-89251000D03*
X110672000Y-89251000D03*
X111622000Y-89251000D03*
X111622000Y-86551000D03*
X110672000Y-86551000D03*
X109722000Y-86551000D03*
%TD*%
%TO.C,J2*%
X109722000Y-126041000D03*
X110672000Y-126041000D03*
X111622000Y-126041000D03*
X111622000Y-123341000D03*
X110672000Y-123341000D03*
X109722000Y-123341000D03*
%TD*%
%TO.C,J2*%
X134544000Y-89251000D03*
X135494000Y-89251000D03*
X136444000Y-89251000D03*
X136444000Y-86551000D03*
X135494000Y-86551000D03*
X134544000Y-86551000D03*
%TD*%
%TO.C,J2*%
X159344000Y-126039000D03*
X160294000Y-126039000D03*
X161244000Y-126039000D03*
X161244000Y-123339000D03*
X160294000Y-123339000D03*
X159344000Y-123339000D03*
%TD*%
%TO.C,J2*%
X109722000Y-144441000D03*
X110672000Y-144441000D03*
X111622000Y-144441000D03*
X111622000Y-141741000D03*
X110672000Y-141741000D03*
X109722000Y-141741000D03*
%TD*%
%TO.C,J2*%
X184144000Y-144461000D03*
X185094000Y-144461000D03*
X186044000Y-144461000D03*
X186044000Y-141761000D03*
X185094000Y-141761000D03*
X184144000Y-141761000D03*
%TD*%
%TO.C,J2*%
X196525000Y-89312000D03*
X197475000Y-89312000D03*
X198425000Y-89312000D03*
X198425000Y-86612000D03*
X197475000Y-86612000D03*
X196525000Y-86612000D03*
%TD*%
%TO.C,J2*%
X171744000Y-135239000D03*
X172694000Y-135239000D03*
X173644000Y-135239000D03*
X173644000Y-132539000D03*
X172694000Y-132539000D03*
X171744000Y-132539000D03*
%TD*%
%TO.C,J2*%
X196525000Y-126102000D03*
X197475000Y-126102000D03*
X198425000Y-126102000D03*
X198425000Y-123402000D03*
X197475000Y-123402000D03*
X196525000Y-123402000D03*
%TD*%
%TO.C,J2*%
X159344000Y-144439000D03*
X160294000Y-144439000D03*
X161244000Y-144439000D03*
X161244000Y-141739000D03*
X160294000Y-141739000D03*
X159344000Y-141739000D03*
%TD*%
%TO.C,J2*%
X196525000Y-116902000D03*
X197475000Y-116902000D03*
X198425000Y-116902000D03*
X198425000Y-114202000D03*
X197475000Y-114202000D03*
X196525000Y-114202000D03*
%TD*%
%TO.C,J2*%
X146944000Y-144441000D03*
X147894000Y-144441000D03*
X148844000Y-144441000D03*
X148844000Y-141741000D03*
X147894000Y-141741000D03*
X146944000Y-141741000D03*
%TD*%
%TO.C,J2*%
X184144000Y-98459000D03*
X185094000Y-98459000D03*
X186044000Y-98459000D03*
X186044000Y-95759000D03*
X185094000Y-95759000D03*
X184144000Y-95759000D03*
%TD*%
%TO.C,J2*%
X159344000Y-80039000D03*
X160294000Y-80039000D03*
X161244000Y-80039000D03*
X161244000Y-77339000D03*
X160294000Y-77339000D03*
X159344000Y-77339000D03*
%TD*%
%TO.C,J2*%
X134544000Y-80041000D03*
X135494000Y-80041000D03*
X136444000Y-80041000D03*
X136444000Y-77341000D03*
X135494000Y-77341000D03*
X134544000Y-77341000D03*
%TD*%
%TO.C,J2*%
X134522000Y-61541000D03*
X135472000Y-61541000D03*
X136422000Y-61541000D03*
X136422000Y-58841000D03*
X135472000Y-58841000D03*
X134522000Y-58841000D03*
%TD*%
%TO.C,J2*%
X184144000Y-135261000D03*
X185094000Y-135261000D03*
X186044000Y-135261000D03*
X186044000Y-132561000D03*
X185094000Y-132561000D03*
X184144000Y-132561000D03*
%TD*%
%TO.C,J2*%
X122144000Y-144461000D03*
X123094000Y-144461000D03*
X124044000Y-144461000D03*
X124044000Y-141761000D03*
X123094000Y-141761000D03*
X122144000Y-141761000D03*
%TD*%
%TO.C,J2*%
X122144000Y-80061000D03*
X123094000Y-80061000D03*
X124044000Y-80061000D03*
X124044000Y-77361000D03*
X123094000Y-77361000D03*
X122144000Y-77361000D03*
%TD*%
%TO.C,J2*%
X159344000Y-89249000D03*
X160294000Y-89249000D03*
X161244000Y-89249000D03*
X161244000Y-86549000D03*
X160294000Y-86549000D03*
X159344000Y-86549000D03*
%TD*%
%TO.C,J2*%
X196525000Y-98500000D03*
X197475000Y-98500000D03*
X198425000Y-98500000D03*
X198425000Y-95800000D03*
X197475000Y-95800000D03*
X196525000Y-95800000D03*
%TD*%
%TO.C,J2*%
X184144000Y-70855000D03*
X185094000Y-70855000D03*
X186044000Y-70855000D03*
X186044000Y-68155000D03*
X185094000Y-68155000D03*
X184144000Y-68155000D03*
%TD*%
%TO.C,J2*%
X134544000Y-126041000D03*
X135494000Y-126041000D03*
X136444000Y-126041000D03*
X136444000Y-123341000D03*
X135494000Y-123341000D03*
X134544000Y-123341000D03*
%TD*%
%TO.C,J2*%
X171744000Y-144439000D03*
X172694000Y-144439000D03*
X173644000Y-144439000D03*
X173644000Y-141739000D03*
X172694000Y-141739000D03*
X171744000Y-141739000D03*
%TD*%
%TO.C,J2*%
X171744000Y-98437000D03*
X172694000Y-98437000D03*
X173644000Y-98437000D03*
X173644000Y-95737000D03*
X172694000Y-95737000D03*
X171744000Y-95737000D03*
%TD*%
%TO.C,J2*%
X122144000Y-89271000D03*
X123094000Y-89271000D03*
X124044000Y-89271000D03*
X124044000Y-86571000D03*
X123094000Y-86571000D03*
X122144000Y-86571000D03*
%TD*%
%TO.C,J2*%
X159344000Y-70833000D03*
X160294000Y-70833000D03*
X161244000Y-70833000D03*
X161244000Y-68133000D03*
X160294000Y-68133000D03*
X159344000Y-68133000D03*
%TD*%
%TO.C,J2*%
X196503000Y-61602000D03*
X197453000Y-61602000D03*
X198403000Y-61602000D03*
X198403000Y-58902000D03*
X197453000Y-58902000D03*
X196503000Y-58902000D03*
%TD*%
%TO.C,J2*%
X159322000Y-61539000D03*
X160272000Y-61539000D03*
X161222000Y-61539000D03*
X161222000Y-58839000D03*
X160272000Y-58839000D03*
X159322000Y-58839000D03*
%TD*%
%TO.C,J2*%
X184144000Y-80061000D03*
X185094000Y-80061000D03*
X186044000Y-80061000D03*
X186044000Y-77361000D03*
X185094000Y-77361000D03*
X184144000Y-77361000D03*
%TD*%
%TO.C,J2*%
X159344000Y-135239000D03*
X160294000Y-135239000D03*
X161244000Y-135239000D03*
X161244000Y-132539000D03*
X160294000Y-132539000D03*
X159344000Y-132539000D03*
%TD*%
%TO.C,J2*%
X134544000Y-144441000D03*
X135494000Y-144441000D03*
X136444000Y-144441000D03*
X136444000Y-141741000D03*
X135494000Y-141741000D03*
X134544000Y-141741000D03*
%TD*%
%TO.C,J2*%
X122122000Y-61561000D03*
X123072000Y-61561000D03*
X124022000Y-61561000D03*
X124022000Y-58861000D03*
X123072000Y-58861000D03*
X122122000Y-58861000D03*
%TD*%
%TO.C,J2*%
X146922000Y-61541000D03*
X147872000Y-61541000D03*
X148822000Y-61541000D03*
X148822000Y-58841000D03*
X147872000Y-58841000D03*
X146922000Y-58841000D03*
%TD*%
%TO.C,J2*%
X146944000Y-98439000D03*
X147894000Y-98439000D03*
X148844000Y-98439000D03*
X148844000Y-95739000D03*
X147894000Y-95739000D03*
X146944000Y-95739000D03*
%TD*%
%TO.C,J2*%
X109722000Y-116841000D03*
X110672000Y-116841000D03*
X111622000Y-116841000D03*
X111622000Y-114141000D03*
X110672000Y-114141000D03*
X109722000Y-114141000D03*
%TD*%
%TO.C,J2*%
X146944000Y-89251000D03*
X147894000Y-89251000D03*
X148844000Y-89251000D03*
X148844000Y-86551000D03*
X147894000Y-86551000D03*
X146944000Y-86551000D03*
%TD*%
%TO.C,J2*%
X109722000Y-135241000D03*
X110672000Y-135241000D03*
X111622000Y-135241000D03*
X111622000Y-132541000D03*
X110672000Y-132541000D03*
X109722000Y-132541000D03*
%TD*%
%TO.C,J2*%
X171744000Y-116839000D03*
X172694000Y-116839000D03*
X173644000Y-116839000D03*
X173644000Y-114139000D03*
X172694000Y-114139000D03*
X171744000Y-114139000D03*
%TD*%
%TO.C,J2*%
X184144000Y-116861000D03*
X185094000Y-116861000D03*
X186044000Y-116861000D03*
X186044000Y-114161000D03*
X185094000Y-114161000D03*
X184144000Y-114161000D03*
%TD*%
%TO.C,J2*%
X122144000Y-70855000D03*
X123094000Y-70855000D03*
X124044000Y-70855000D03*
X124044000Y-68155000D03*
X123094000Y-68155000D03*
X122144000Y-68155000D03*
%TD*%
%TO.C,J2*%
X122144000Y-98459000D03*
X123094000Y-98459000D03*
X124044000Y-98459000D03*
X124044000Y-95759000D03*
X123094000Y-95759000D03*
X122144000Y-95759000D03*
%TD*%
%TO.C,J2*%
X146944000Y-135241000D03*
X147894000Y-135241000D03*
X148844000Y-135241000D03*
X148844000Y-132541000D03*
X147894000Y-132541000D03*
X146944000Y-132541000D03*
%TD*%
M02*
