%TF.GenerationSoftware,KiCad,Pcbnew,6.0.11+dfsg-1~bpo11+1*%
%TF.CreationDate,2023-03-06T17:28:26+08:00*%
%TF.ProjectId,sot2dip - panel,736f7432-6469-4702-902d-2070616e656c,rev?*%
%TF.SameCoordinates,Original*%
%TF.FileFunction,Drillmap*%
%TF.FilePolarity,Positive*%
%FSLAX45Y45*%
G04 Gerber Fmt 4.5, Leading zero omitted, Abs format (unit mm)*
G04 Created by KiCad (PCBNEW 6.0.11+dfsg-1~bpo11+1) date 2023-03-06 17:28:26*
%MOMM*%
%LPD*%
G01*
G04 APERTURE LIST*
%ADD10C,0.050000*%
%ADD11C,0.200000*%
G04 APERTURE END LIST*
D10*
X20330000Y-14770000D02*
X10500000Y-14760000D01*
X10500000Y-5600000D02*
X20320000Y-5600000D01*
X10500000Y-14760000D02*
X10500000Y-5600000D01*
X20320000Y-5600000D02*
X20330000Y-14770000D01*
D11*
X10755119Y-15082976D02*
X10755119Y-14882976D01*
X10802738Y-14882976D01*
X10831310Y-14892500D01*
X10850357Y-14911548D01*
X10859881Y-14930595D01*
X10869405Y-14968690D01*
X10869405Y-14997262D01*
X10859881Y-15035357D01*
X10850357Y-15054405D01*
X10831310Y-15073452D01*
X10802738Y-15082976D01*
X10755119Y-15082976D01*
X10955119Y-15082976D02*
X10955119Y-14949643D01*
X10955119Y-14987738D02*
X10964643Y-14968690D01*
X10974167Y-14959167D01*
X10993214Y-14949643D01*
X11012262Y-14949643D01*
X11078929Y-15082976D02*
X11078929Y-14949643D01*
X11078929Y-14882976D02*
X11069405Y-14892500D01*
X11078929Y-14902024D01*
X11088452Y-14892500D01*
X11078929Y-14882976D01*
X11078929Y-14902024D01*
X11202738Y-15082976D02*
X11183690Y-15073452D01*
X11174167Y-15054405D01*
X11174167Y-14882976D01*
X11307500Y-15082976D02*
X11288452Y-15073452D01*
X11278928Y-15054405D01*
X11278928Y-14882976D01*
X11536071Y-15082976D02*
X11536071Y-14882976D01*
X11602738Y-15025833D01*
X11669405Y-14882976D01*
X11669405Y-15082976D01*
X11850357Y-15082976D02*
X11850357Y-14978214D01*
X11840833Y-14959167D01*
X11821786Y-14949643D01*
X11783690Y-14949643D01*
X11764643Y-14959167D01*
X11850357Y-15073452D02*
X11831309Y-15082976D01*
X11783690Y-15082976D01*
X11764643Y-15073452D01*
X11755119Y-15054405D01*
X11755119Y-15035357D01*
X11764643Y-15016309D01*
X11783690Y-15006786D01*
X11831309Y-15006786D01*
X11850357Y-14997262D01*
X11945595Y-14949643D02*
X11945595Y-15149643D01*
X11945595Y-14959167D02*
X11964643Y-14949643D01*
X12002738Y-14949643D01*
X12021786Y-14959167D01*
X12031309Y-14968690D01*
X12040833Y-14987738D01*
X12040833Y-15044881D01*
X12031309Y-15063928D01*
X12021786Y-15073452D01*
X12002738Y-15082976D01*
X11964643Y-15082976D01*
X11945595Y-15073452D01*
X12126548Y-15063928D02*
X12136071Y-15073452D01*
X12126548Y-15082976D01*
X12117024Y-15073452D01*
X12126548Y-15063928D01*
X12126548Y-15082976D01*
X12126548Y-14959167D02*
X12136071Y-14968690D01*
X12126548Y-14978214D01*
X12117024Y-14968690D01*
X12126548Y-14959167D01*
X12126548Y-14978214D01*
M02*
